<svg class="img-fluid safari" id="outputsvg" xmlns="http://www.w3.org/2000/svg" width="463.37376" height="463.37376" viewBox="0 0 4000 4000" style="transform: matrix(1.448043, 0, 0, 1.448043, 0, 0); transform-origin: 50% 50%; cursor: move; transition: transform 200ms ease-in-out 0s; position: absolute; left: 38.313126px; top: -51.686874px; width: 463.37376px; max-width: 463.37376px; height: 463.37376px; max-height: 463.37376px;"><g id="l4YKjLxED6t2zFDN1NRgosh" fill="rgb(0,0,0)" style="transform: none;"><g style="transform: none;"><path id="pH00YSIyS" d="M780 2560 c0 -13 7 -20 20 -20 13 0 20 7 20 20 0 13 -7 20 -20 20 -13 0 -20 -7 -20 -20z"></path><path id="p16j307XKQ" d="M772 2468 c-30 -30 0 -75 43 -64 41 11 29 76 -15 76 -9 0 -21 -5 -28 -12z"></path><path id="pewptUZ8l" d="M2082 2283 l3 -168 84 -2 c97 -2 132 11 151 57 19 46 9 135 -20 165 -28 29 -82 42 -116 26 -24 -10 -24 -10 -24 39 l0 50 -40 0 -40 0 2 -167z m152 -5 c21 -29 20 -62 0 -83 -22 -22 -46 -15 -62 17 -10 22 -10 32 -1 50 22 43 41 47 63 16z"></path><path id="p1frQdb6Q" d="M791 2344 c-12 -15 -21 -35 -21 -45 0 -16 37 -53 62 -61 6 -2 3 -19 -11 -46 -11 -22 -21 -46 -21 -51 0 -6 18 -20 40 -31 l40 -20 -27 -41 -26 -40 -27 26 c-14 14 -31 25 -37 25 -17 0 -83 -65 -83 -81 0 -16 70 -89 85 -89 5 0 23 14 40 30 l31 30 32 -39 c18 -22 32 -42 32 -44 0 -3 -13 -10 -30 -17 -36 -15 -38 -35 -10 -90 23 -46 35 -48 91 -19 37 18 41 23 37 52 -3 18 -8 39 -12 48 -5 11 3 20 29 32 38 18 41 16 47 -33 3 -24 6 -25 57 -23 30 2 59 7 64 12 5 5 6 34 3 65 l-7 56 -40 0 c-41 0 -43 2 -53 57 -5 31 -5 32 37 35 l42 3 3 58 3 59 39 -7 c37 -6 41 -5 50 20 24 63 8 85 -61 85 -28 0 -39 -19 -39 -67 0 -21 -4 -23 -60 -23 l-60 0 0 -36 0 -36 -42 7 c-53 9 -54 9 -40 40 21 46 15 61 -31 79 -23 9 -48 16 -56 16 -8 0 -5 9 8 26 29 36 26 59 -8 83 -38 27 -45 26 -70 -5z"></path><path id="p44pJTp6S" d="M1635 2359 c-88 -25 -131 -155 -85 -256 26 -59 69 -83 145 -83 91 0 145 42 145 111 0 28 -79 28 -87 0 -7 -27 -55 -46 -82 -32 -33 18 -51 53 -51 99 0 80 75 120 124 67 16 -18 34 -25 59 -25 19 0 37 4 39 8 2 5 13 -4 26 -20 23 -28 23 -28 3 -28 -21 0 -26 -15 -15 -45 18 -45 131 -61 178 -24 25 20 26 24 26 124 l0 103 -26 6 c-15 4 -31 3 -36 -2 -6 -6 -20 -6 -38 1 -42 16 -92 -2 -110 -39 l-15 -30 -23 28 c-35 42 -108 57 -177 37z m331 -74 c18 -14 18 -14 -8 -15 -27 0 -43 12 -31 24 9 9 17 8 39 -9z m9 -95 c-3 -5 -12 -10 -20 -10 -8 0 -17 5 -20 10 -4 6 5 10 20 10 15 0 24 -4 20 -10z"></path><path id="p1ENFOr11K" d="M2653 2360 c-12 -5 -26 -17 -32 -27 -10 -16 -10 -16 -11 5 0 20 -5 22 -58 22 -32 0 -63 -5 -70 -12 -7 -7 -12 -43 -12 -90 0 -71 -2 -78 -20 -78 -16 0 -20 -7 -20 -31 0 -22 5 -32 20 -36 15 -4 20 -14 20 -39 0 -33 1 -34 40 -34 39 0 40 1 40 34 0 30 3 35 28 38 22 2 28 8 30 36 3 30 1 32 -27 32 -31 0 -31 0 -31 54 0 52 1 54 30 58 23 4 30 1 30 -12 0 -25 37 -68 63 -73 13 -3 7 -5 -15 -6 -39 -1 -45 -11 -32 -46 10 -25 58 -45 109 -45 35 0 52 6 70 25 23 22 25 31 25 125 l0 101 -42 -1 c-24 0 -59 2 -78 5 -19 2 -45 0 -57 -5z m83 -75 c18 -14 18 -14 -8 -15 -27 0 -43 12 -31 24 9 9 17 8 39 -9z m9 -95 c-3 -5 -12 -10 -20 -10 -8 0 -17 5 -20 10 -4 6 5 10 20 10 15 0 24 -4 20 -10z"></path><path id="pEoy3rpYK" d="M2342 2238 l3 -123 35 0 35 0 3 123 3 122 -41 0 -41 0 3 -122z"></path><path id="pyAGz0xYE" d="M2850 2190 l0 -170 40 0 40 0 0 170 0 170 -40 0 -40 0 0 -170z"></path><path id="pe1mGhRrT" d="M1410 2330 c0 -13 7 -20 20 -20 13 0 20 7 20 20 0 13 -7 20 -20 20 -13 0 -20 -7 -20 -20z"></path><path id="pNFWuMXun" d="M1284 2306 c-12 -31 1 -51 33 -54 28 -3 33 1 39 23 4 18 2 30 -7 36 -22 14 -59 11 -65 -5z"></path><path id="pPYVEeFGo" d="M2340 2060 l0 -40 40 0 40 0 0 40 0 40 -40 0 -40 0 0 -40z"></path><path id="p16VbJFQJe" d="M347 2063 c-16 -15 -6 -33 18 -33 18 0 25 5 25 20 0 20 -28 28 -43 13z"></path><path id="pa3hemjXg" d="M457 2043 c-14 -4 -17 -13 -15 -36 3 -28 7 -32 36 -35 38 -4 51 16 34 54 -11 24 -19 26 -55 17z"></path><path id="pazZFtzKX" d="M578 2022 c-33 -20 -35 -34 -7 -73 23 -33 39 -36 74 -13 29 19 32 45 9 79 -19 29 -39 31 -76 7z"></path><path id="pgINqNvPf" d="M1550 1820 l0 -170 105 0 c99 0 107 2 130 25 29 28 34 88 10 122 -14 20 -14 23 1 31 20 11 30 83 14 111 -19 36 -70 51 -170 51 l-90 0 0 -170z m178 66 c5 -24 -14 -36 -60 -36 -36 0 -38 2 -38 31 0 30 1 30 47 27 37 -2 49 -7 51 -22z m-8 -121 c19 -23 -5 -45 -51 -45 -37 0 -39 2 -39 30 0 28 2 30 39 30 22 0 44 -6 51 -15z"></path><path id="pIlHHncS5" d="M1830 1821 l0 -171 40 0 40 0 -2 168 -3 167 -37 3 -38 3 0 -170z"></path><path id="p1FkvO9Wr" d="M1969 1975 c-37 -20 -52 -64 -47 -132 4 -45 10 -61 32 -79 58 -50 151 -38 193 25 13 19 23 29 23 23 0 -6 11 -24 25 -40 30 -36 79 -47 135 -32 42 11 60 33 60 74 0 23 -4 26 -33 26 -20 0 -39 -8 -50 -20 -34 -40 -79 17 -57 74 11 29 41 34 60 11 7 -9 29 -15 52 -15 39 0 40 1 34 28 -12 47 -50 72 -112 72 -48 0 -60 -4 -85 -29 -16 -16 -29 -38 -29 -48 -1 -11 -6 -6 -15 14 -7 17 -27 39 -44 47 -37 20 -107 20 -142 1z m99 -67 c17 -17 15 -74 -3 -92 -16 -15 -44 -11 -57 8 -12 17 -9 71 4 84 7 7 19 12 28 12 9 0 21 -5 28 -12z"></path><path id="pgwWjivhf" d="M2410 1821 l0 -171 40 0 40 0 0 72 0 72 28 -27 c21 -21 38 -27 70 -27 54 0 56 22 8 69 l-35 34 26 38 c14 22 26 39 27 39 0 0 1 -27 1 -59 0 -50 4 -64 25 -86 34 -37 67 -48 118 -40 50 7 82 37 82 77 0 25 -4 28 -33 28 -20 0 -39 -8 -50 -20 -35 -41 -80 20 -55 74 13 29 39 34 58 11 7 -8 28 -15 46 -15 31 0 34 3 34 29 0 44 -40 71 -104 71 -30 0 -61 -6 -74 -16 -20 -14 -22 -14 -22 0 0 12 -10 16 -40 16 -36 0 -43 -5 -68 -40 -15 -21 -30 -39 -34 -40 -4 0 -8 17 -10 38 -3 35 -5 37 -40 40 l-38 3 0 -170z"></path><path id="pxv4aQn1O" d="M2850 1820 l0 -170 40 0 40 0 0 50 c0 49 0 49 25 38 36 -16 98 4 113 37 7 14 12 69 12 121 l0 95 -37 -3 -38 -3 -5 -82 c-6 -96 -21 -121 -51 -84 -15 18 -19 39 -19 97 l0 74 -40 0 -40 0 0 -170z"></path><path id="p1F5XZo9fh" d="M3112 1974 c-34 -23 -31 -96 4 -123 l27 -21 -27 0 c-34 0 -35 -28 -2 -63 29 -32 83 -43 130 -27 56 18 66 41 66 152 l0 97 -88 0 c-63 0 -95 -4 -110 -15z m108 -69 c10 -12 10 -15 -3 -15 -23 0 -47 11 -47 21 0 15 37 10 50 -6z m0 -84 c0 -18 -17 -20 -36 -6 -18 14 -18 14 9 15 15 0 27 -4 27 -9z"></path><path id="pL9MIZmEl" d="M3330 1866 l0 -126 40 0 41 0 -3 123 -3 122 -37 3 -38 3 0 -125z"></path><path id="p7HfuDXAy" d="M3430 1864 l0 -126 43 3 c23 1 57 -1 75 -5 44 -10 87 8 102 43 6 15 10 66 8 117 l-3 89 -35 0 -35 0 -3 -82 c-3 -94 -17 -118 -51 -84 -18 18 -21 34 -21 96 l0 75 -40 0 -40 0 0 -126z"></path><path id="p9Amebbw4" d="M1186 1809 c-4 -23 -3 -46 2 -51 5 -5 29 -8 53 -6 l44 3 0 45 0 45 -46 3 -46 3 -7 -42z"></path><path id="pJhImT0rh" d="M1307 1734 c-4 -4 -7 -20 -7 -35 0 -22 6 -30 26 -35 32 -8 46 6 42 42 -2 23 -9 30 -28 32 -14 2 -29 0 -33 -4z"></path><path id="pw9GaFCzD" d="M3324 1716 c-3 -8 -4 -25 -2 -38 2 -19 10 -23 46 -26 l42 -3 0 40 0 41 -40 0 c-26 0 -43 -5 -46 -14z"></path><path id="pTzMHtAlO" d="M833 1703 c-18 -7 -16 -78 2 -93 10 -9 25 -9 52 -3 35 8 38 12 37 41 -3 52 -10 62 -46 61 -18 0 -39 -3 -45 -6z"></path><path id="pjGNLdghr" d="M1390 1605 c0 -18 5 -25 20 -25 15 0 20 7 20 25 0 18 -5 25 -20 25 -15 0 -20 -7 -20 -25z"></path><path id="pSdSiUIV4" d="M772 1538 c3 -29 7 -33 35 -36 27 -3 33 1 39 22 8 35 -2 46 -42 46 -34 0 -35 -1 -32 -32z"></path><path id="pORM7N6i8" d="M720 1434 c0 -33 33 -30 38 4 3 17 -2 22 -17 22 -16 0 -21 -6 -21 -26z"></path></g></g><g id="l6YhUcdWS1dRcK1555walIC" fill="rgb(255,255,255)" style="transform: none;"><g style="transform: none;"><path id="pJe6efQPa" d="M0 2000 l0 -2000 2000 0 2000 0 0 2000 0 2000 -2000 0 -2000 0 0 -2000z m810 560 c0 -5 -4 -10 -10 -10 -5 0 -10 5 -10 10 0 6 5 10 10 10 6 0 10 -4 10 -10z m8 -102 c7 -7 12 -17 12 -24 0 -19 -32 -26 -48 -10 -13 12 -13 18 -2 30 15 19 22 20 38 4z m1332 -73 l0 -56 31 16 c63 33 127 -9 136 -89 10 -86 -41 -146 -111 -132 -34 7 -36 7 -81 3 l-30 -2 -3 158 -3 157 31 0 c30 0 30 0 30 -55z m-1270 -75 c0 -5 -10 -21 -23 -35 l-22 -27 -28 22 c-32 26 -33 30 -6 64 l21 26 29 -21 c16 -11 29 -24 29 -29z m862 40 c37 -11 88 -60 88 -86 0 -24 -50 -16 -76 11 -31 34 -86 34 -119 0 -21 -20 -25 -34 -25 -80 0 -49 4 -60 29 -86 16 -16 39 -29 50 -29 32 0 69 21 74 41 4 13 14 19 36 19 34 0 36 -5 21 -44 -23 -62 -140 -87 -208 -46 -37 23 -71 88 -72 136 0 73 47 147 105 163 41 12 54 12 97 1z m228 -5 c24 -12 29 -12 33 -1 4 9 14 12 26 9 19 -5 21 -13 21 -98 0 -89 -1 -95 -26 -114 -32 -25 -83 -27 -124 -6 -17 9 -30 17 -30 19 0 3 -3 11 -6 19 -7 20 42 29 58 10 15 -18 62 -13 66 8 2 11 -10 18 -49 25 -65 11 -99 48 -83 91 9 26 45 53 72 53 7 0 26 -7 42 -15z m808 4 l42 1 0 -90 c0 -83 -2 -93 -25 -115 -28 -29 -80 -33 -125 -10 -17 9 -30 17 -30 19 0 3 -3 11 -6 20 -5 12 1 16 23 16 16 0 34 -5 40 -11 15 -15 57 -7 61 12 2 11 -10 18 -49 25 -65 11 -99 48 -83 91 12 34 51 56 84 47 14 -3 44 -6 68 -5z m-370 -111 l-3 -113 -25 0 -25 0 -3 113 -3 112 31 0 31 0 -3 -112z m190 90 c-2 -17 -11 -24 -30 -26 -27 -3 -28 -5 -28 -68 l0 -64 31 0 c26 0 30 -3 27 -22 -2 -17 -11 -24 -30 -26 -25 -3 -28 -8 -28 -38 0 -31 -2 -34 -30 -34 -27 0 -30 3 -30 34 0 25 -5 35 -20 39 -12 3 -20 14 -20 26 0 14 6 21 20 21 18 0 20 7 20 78 0 47 5 83 12 90 7 7 34 12 61 12 44 0 48 -2 45 -22z m322 -138 l0 -160 -30 0 -30 0 0 160 0 160 30 0 30 0 0 -160z m-1480 140 c0 -5 -4 -10 -10 -10 -5 0 -10 5 -10 10 0 6 5 10 10 10 6 0 10 -4 10 -10z m-102 -28 c17 -12 4 -42 -18 -42 -23 0 -34 16 -26 35 6 17 24 19 44 7z m-90 -66 c3 -3 1 -20 -5 -38 -8 -29 -13 -33 -39 -30 -40 5 -47 15 -39 52 7 30 9 32 42 27 20 -4 38 -9 41 -11z m-341 -22 c24 -9 43 -20 43 -24 0 -4 -7 -24 -15 -43 -8 -20 -11 -38 -7 -41 5 -3 32 -8 60 -12 l52 -7 0 37 0 36 56 0 55 0 -3 -52 -3 -53 -43 -3 -44 -3 7 -42 c12 -75 12 -76 54 -70 l38 5 7 -47 c4 -26 4 -51 -1 -56 -4 -4 -28 -9 -53 -11 -44 -3 -45 -2 -48 30 -4 43 -21 48 -71 22 -45 -23 -47 -26 -26 -54 25 -33 18 -54 -25 -76 -21 -11 -42 -20 -44 -20 -7 0 -46 76 -46 88 0 4 16 16 36 25 23 11 33 21 28 30 -19 32 -68 87 -78 87 -5 0 -24 -13 -41 -30 l-31 -30 -39 40 -39 40 39 35 38 36 27 -26 c14 -14 31 -25 37 -25 11 0 63 73 63 90 0 5 -18 19 -40 30 l-40 20 22 45 c12 25 24 45 27 45 3 0 25 -7 48 -16z m1503 -154 c0 -27 -3 -30 -30 -30 -27 0 -30 3 -30 30 0 27 3 30 30 30 27 0 30 -3 30 -30z m-2030 -10 c0 -5 -7 -10 -16 -10 -8 0 -12 5 -9 10 3 6 10 10 16 10 5 0 9 -4 9 -10z m127 -55 c-2 -5 -15 -10 -28 -10 -30 0 -41 41 -12 47 19 5 46 -19 40 -37z m137 10 c22 -33 20 -40 -11 -60 -26 -18 -27 -17 -50 11 -29 36 -29 36 5 56 35 23 37 22 56 -7z m1111 -39 c18 -8 39 -24 45 -36 16 -29 5 -80 -20 -97 l-20 -14 20 -26 c27 -35 26 -78 -5 -108 -22 -23 -32 -25 -120 -25 l-95 0 0 160 0 160 80 0 c47 0 95 -6 115 -14z m143 -148 l3 -158 -31 0 -30 0 0 161 0 160 28 -3 27 -3 3 -157z m209 142 c58 -35 66 -137 14 -184 -47 -43 -125 -41 -166 4 -23 25 -31 101 -15 140 24 58 106 78 167 40z m245 0 c14 -11 28 -29 31 -40 4 -17 0 -20 -23 -20 -15 0 -33 7 -40 15 -7 8 -26 15 -41 15 -35 0 -54 -37 -44 -87 9 -50 73 -70 89 -28 7 21 56 20 56 -1 0 -46 -60 -79 -121 -67 -33 6 -76 52 -85 90 -9 36 12 99 43 122 34 28 101 28 135 1z m128 -25 c3 -22 10 -40 17 -40 6 0 25 19 42 43 25 33 37 42 61 42 17 0 30 -3 30 -7 0 -4 -18 -33 -40 -64 -22 -32 -40 -61 -40 -66 0 -5 16 -24 35 -43 19 -19 35 -38 35 -42 0 -4 -14 -8 -32 -8 -24 0 -42 10 -70 37 l-38 37 0 -82 0 -82 -30 0 -30 0 0 161 0 160 28 -3 c23 -3 28 -8 32 -43z m324 24 c34 -26 35 -59 2 -59 -13 0 -29 7 -36 15 -7 8 -25 15 -40 15 -34 0 -55 -43 -45 -89 11 -49 73 -67 89 -26 8 22 56 19 56 -2 -1 -29 -25 -53 -64 -64 -45 -12 -72 -5 -108 29 -50 47 -45 139 9 182 35 27 102 27 137 -1z m116 -52 c0 -79 16 -117 50 -117 28 0 34 17 40 105 5 78 6 80 33 83 l27 3 0 -85 c0 -102 -11 -132 -57 -147 -28 -9 -38 -8 -58 5 -13 9 -27 16 -30 16 -3 0 -5 -25 -5 -55 0 -54 0 -55 -30 -55 l-30 0 0 160 0 160 30 0 30 0 0 -73z m299 61 c11 -10 14 -10 18 0 3 6 18 12 34 12 l29 0 0 -88 c0 -100 -11 -124 -65 -142 -44 -15 -97 1 -119 35 -9 13 -16 27 -16 30 0 12 50 4 79 -12 28 -17 31 -17 47 -1 23 23 9 38 -35 38 -53 0 -91 31 -91 75 0 24 7 39 22 49 27 19 79 21 97 4z m179 -105 l3 -113 -31 0 -30 0 0 116 0 115 28 -3 27 -3 3 -112z m102 42 c0 -62 4 -79 20 -95 46 -46 68 -19 72 85 3 78 4 80 28 80 24 0 25 -2 28 -79 3 -93 -9 -130 -48 -146 -24 -10 -35 -9 -62 4 -20 11 -34 13 -36 6 -2 -5 -17 -10 -33 -10 l-29 0 0 115 0 115 30 0 30 0 0 -75z m-2225 -105 c0 -32 -2 -35 -34 -38 -42 -4 -50 4 -44 46 5 31 8 33 42 30 34 -3 36 -5 36 -38z m83 -94 c5 -24 -10 -38 -31 -30 -17 6 -23 35 -10 48 12 12 38 1 41 -18z m2042 -17 c0 -28 -2 -30 -32 -27 -31 3 -38 15 -29 53 1 3 15 5 31 5 27 0 30 -3 30 -31z m-2495 -1 c15 -42 10 -61 -19 -69 -19 -5 -35 -4 -43 3 -17 13 -17 65 0 71 24 10 58 7 62 -5z m515 -83 c0 -8 -4 -15 -10 -15 -5 0 -10 7 -10 15 0 8 5 15 10 15 6 0 10 -7 10 -15z m-586 -54 c4 -5 3 -17 0 -26 -10 -24 -48 -15 -52 13 -3 18 1 22 22 22 14 0 27 -4 30 -9z m-84 -110 c0 -6 -4 -13 -10 -16 -5 -3 -10 1 -10 9 0 9 5 16 10 16 6 0 10 -4 10 -9z"></path><path id="pgxCgu9wx" d="M2176 2294 c-40 -39 -24 -116 25 -122 35 -4 59 22 59 61 0 63 -48 97 -84 61z"></path><path id="pyHQdMzGg" d="M1913 2294 c-7 -20 4 -30 45 -37 27 -6 32 -4 32 13 0 34 -65 55 -77 24z"></path><path id="p16JfmwLxj" d="M2683 2294 c-7 -20 4 -30 45 -37 27 -6 32 -4 32 13 0 34 -65 55 -77 24z"></path><path id="pfQlO354f" d="M1620 1880 l0 -40 49 0 c32 0 55 6 65 16 19 18 19 20 6 45 -9 15 -22 19 -65 19 l-55 0 0 -40z"></path><path id="p1EKKDfdUJ" d="M1620 1750 l0 -41 51 3 c96 6 96 70 0 76 l-51 3 0 -41z"></path><path id="pawnnHtB6" d="M2002 1918 c-13 -13 -16 -86 -4 -104 11 -16 42 -25 63 -19 34 11 44 87 16 123 -12 15 -59 16 -75 0z"></path><path id="p12pa5euRq" d="M3160 1911 c0 -10 7 -22 16 -25 27 -10 64 -7 64 7 0 21 -22 37 -52 37 -21 0 -28 -5 -28 -19z"></path></g></g></svg>
