<!DOCTYPE svg PUBLIC "-//W3C//DTD SVG 20010904//EN" "http://www.w3.org/TR/2001/REC-SVG-20010904/DTD/svg10.dtd">
<svg version="1.0" xmlns="http://www.w3.org/2000/svg" width="288px" height="288px" viewBox="0 0 2880 2880" preserveAspectRatio="xMidYMid meet">
<g id="layer101" fill="#32a9fa" stroke="none">
 <path d="M0 1440 l0 -1440 1440 0 1440 0 0 1440 0 1440 -1440 0 -1440 0 0 -1440z"/>
 </g>
<g id="layer102" fill="#feffff" stroke="none">
 <path d="M0 1440 l0 -1440 1440 0 1440 0 0 1440 0 1440 -1440 0 -1440 0 0 -1440z m2082 403 c566 -565 578 -579 578 -617 0 -35 -20 -63 -251 -352 -138 -173 -262 -323 -276 -334 -25 -20 -42 -20 -662 -20 -568 0 -639 2 -659 16 -20 14 -466 564 -515 634 -9 13 -17 40 -17 60 0 33 33 68 578 612 541 542 579 578 612 578 32 0 71 -36 612 -577z"/>
 <path d="M1341 1692 c-68 -191 -126 -353 -128 -359 -4 -10 51 -13 257 -13 206 0 261 3 257 13 -2 6 -60 168 -128 359 -68 192 -126 348 -129 348 -3 0 -61 -156 -129 -348z"/>
 <path d="M915 1640 l-320 -320 209 2 209 3 54 150 c73 199 173 485 170 485 -1 0 -146 -144 -322 -320z"/>
 <path d="M1759 1793 c32 -93 82 -231 110 -308 28 -76 51 -145 51 -152 0 -10 46 -13 212 -13 l213 0 -320 320 c-176 176 -321 320 -322 320 -1 0 24 -75 56 -167z"/>
 <path d="M692 965 c120 -150 133 -164 141 -143 40 106 107 294 107 300 0 4 -86 8 -190 8 l-190 0 132 -165z"/>
 <path d="M1262 1108 c111 -177 204 -317 210 -315 6 2 127 187 197 300 l23 37 -222 0 -222 0 14 -22z"/>
 <path d="M2000 1124 c0 -3 25 -77 57 -165 44 -126 59 -157 68 -147 7 7 67 82 134 166 l122 152 -191 0 c-104 0 -190 -3 -190 -6z"/>
 <path d="M1097 1003 c-6 -10 -107 -293 -107 -300 0 -1 70 -3 155 -3 85 0 155 2 155 5 0 15 -198 306 -203 298z"/>
 <path d="M1785 932 c-27 -42 -71 -110 -97 -150 -26 -41 -48 -75 -48 -78 0 -2 70 -4 156 -4 121 0 155 3 152 13 -3 6 -27 76 -54 154 -27 79 -51 143 -54 143 -3 0 -27 -35 -55 -78z"/>
 </g>

</svg>