<svg width="1496" height="1022" viewBox="0 0 1496 1022" fill="none" xmlns="http://www.w3.org/2000/svg">
<path d="M222 299H282V563H222V299Z" fill="#FF604B"/>
<path d="M388 349H448V550.6H388V349Z" fill="#FF604B"/>
<path d="M993 359H1053V559H993V359Z" fill="#FF604B"/>
<path d="M538 349H598V550.6H538V349Z" fill="#FF604B"/>
<path d="M1143 459H1203V499H1143V459Z" fill="#FF604B"/>
<path d="M684 359H744V399H684V359Z" fill="#FF604B"/>
<path d="M834 459H894V499H834V459Z" fill="#FF604B"/>
<path d="M388 359L388 299L598 299L598 359L388 359Z" fill="#FF604B"/>
<path d="M993 359L993 299L1203 299L1203 359L993 359Z" fill="#FF604B"/>
<path d="M684 359L684 299L894 299L894 359L684 359Z" fill="#FF604B"/>
<path d="M684 459L684 399L894 399L894 459L684 459Z" fill="#FF604B"/>
<path d="M684 559L684 499L894 499L894 559L684 559Z" fill="#FF604B"/>
<path d="M1093 459L1093 399L1203 399L1203 459L1093 459Z" fill="#FF604B"/>
<path d="M388 563L388 503L598 503L598 563L388 563Z" fill="#FF604B"/>
<path d="M993 559L993 499L1203 499L1203 559L993 559Z" fill="#FF604B"/>
<path d="M318.241 607.902H302.698L270.356 705.085H270.042L238.014 607.902H221.843L261.407 720H278.363L318.241 607.902ZM366.335 720H444.207V707.44H381.25V668.661H439.497V656.101H381.25V620.462H443.736V607.902H366.335V720ZM531.943 674.234V661.125H545.052V674.234H531.943ZM518.873 661.125V648.054H531.943V661.125H518.873ZM492.693 720V608.804H505.802V634.984H518.873V648.054H505.802V720H492.693ZM558.123 720V687.304H545.052V674.234H558.123V608.804H571.193V720H558.123ZM651.499 720H666.414V620.462H703.78V607.902H614.133V620.462H651.499V720ZM759.707 720V706.929H812.027V720H759.707ZM746.598 706.929V608.804H759.707V706.929H746.598ZM812.027 706.929V608.804H825.098V706.929H812.027ZM939.669 720V706.929H952.74V720H939.669ZM926.599 706.929V693.859H939.669V706.929H926.599ZM913.49 693.859V680.75H926.599V693.859H913.49ZM939.669 654.609V621.875H952.74V654.609H939.669ZM874.24 720V608.804H939.669V621.875H887.349V654.609H939.669V667.679H913.49V680.75H900.419V667.679H887.349V720H874.24ZM1007.61 720H1085.48V707.44H1022.53V668.661H1080.77V656.101H1022.53V620.462H1085.01V607.902H1007.61V720ZM1140.53 720V706.929H1199.4V720H1140.53ZM1199.4 706.929V667.679H1212.47V706.929H1199.4ZM1147.08 667.679V654.609H1199.4V667.679H1147.08ZM1133.97 654.609V621.875H1147.08V654.609H1133.97ZM1147.08 621.875V608.804H1205.95V621.875H1147.08Z" fill="black"/>
<rect x="1173" y="299" width="30" height="30" fill="black"/>
<rect x="1173" y="399" width="30" height="30" fill="black"/>
<rect x="864" y="299" width="30" height="30" fill="black"/>
<rect x="598" y="479" width="30" height="30" transform="rotate(90 598 479)" fill="black"/>
<rect x="1143" y="329" width="30" height="30" fill="black"/>
<rect x="1143" y="429" width="30" height="30" fill="black"/>
<rect x="834" y="329" width="30" height="30" fill="black"/>
<rect x="1113" y="299" width="30" height="30" fill="black"/>
<rect x="598" y="419" width="30" height="30" transform="rotate(90 598 419)" fill="black"/>
<rect x="282" y="419" width="30" height="30" transform="rotate(90 282 419)" fill="black"/>
<rect x="774" y="329" width="30" height="30" fill="black"/>
<rect x="713" y="329" width="30" height="30" fill="black"/>
<rect x="804" y="299" width="30" height="30" fill="black"/>
<rect x="252" y="389" width="30" height="30" transform="rotate(90 252 389)" fill="black"/>
<rect x="1023" y="329" width="30" height="30" fill="black"/>
<rect x="1083" y="329" width="30" height="30" fill="black"/>
<rect x="1113" y="400" width="30" height="30" fill="black"/>
<rect x="1173" y="459" width="30" height="30" fill="black"/>
<rect x="448" y="329" width="30" height="30" transform="rotate(90 448 329)" fill="black"/>
<rect x="478" y="299" width="30" height="30" transform="rotate(90 478 299)" fill="black"/>
<rect x="508" y="329" width="30" height="30" transform="rotate(90 508 329)" fill="black"/>
<rect x="568" y="329" width="30" height="30" transform="rotate(90 568 329)" fill="black"/>
<rect x="598" y="359" width="30" height="30" transform="rotate(90 598 359)" fill="black"/>
<rect x="568" y="389" width="30" height="30" transform="rotate(90 568 389)" fill="black"/>
<rect x="568" y="450" width="30" height="30" transform="rotate(90 568 450)" fill="black"/>
<rect x="418" y="299" width="30" height="30" transform="rotate(90 418 299)" fill="black"/>
<rect x="864" y="430" width="30" height="30" fill="black"/>
<rect x="804" y="429" width="30" height="30" fill="black"/>
<rect x="834" y="459" width="30" height="30" fill="black"/>
<rect x="864" y="489" width="30" height="30" fill="black"/>
<rect x="1053" y="299" width="30" height="30" fill="black"/>
<rect x="744" y="299" width="30" height="30" fill="black"/>
<rect x="282" y="359" width="30" height="30" transform="rotate(90 282 359)" fill="black"/>
<rect x="252" y="329" width="30" height="30" transform="rotate(90 252 329)" fill="black"/>
<rect x="684" y="299" width="30" height="30" fill="black"/>
<rect x="598" y="299" width="30" height="30" transform="rotate(90 598 299)" fill="black"/>
<rect x="282" y="299" width="30" height="30" transform="rotate(90 282 299)" fill="black"/>
<rect x="538" y="299" width="30" height="30" transform="rotate(90 538 299)" fill="black"/>
<rect x="834" y="400" width="30" height="30" fill="black"/>
<rect x="774" y="399" width="30" height="30" fill="black"/>
<rect x="728" y="205" width="30" height="30" fill="#FF604B"/>
<rect x="653" y="239" width="30" height="30" fill="#FF604B"/>
<rect x="308" y="209" width="30" height="30" fill="#FF604B"/>
<rect x="848" y="224" width="30" height="30" fill="#FF604B"/>
<rect x="1243" y="384" width="30" height="30" fill="#FF604B"/>
<rect x="1309" y="476" width="30" height="30" fill="#FF604B"/>
<rect x="1234" y="527" width="30" height="30" fill="#FF604B"/>
</svg>
