<!DOCTYPE svg PUBLIC "-//W3C//DTD SVG 20010904//EN" "http://www.w3.org/TR/2001/REC-SVG-20010904/DTD/svg10.dtd">
<svg version="1.0" xmlns="http://www.w3.org/2000/svg" width="768px" height="768px" viewBox="0 0 7680 7680" preserveAspectRatio="xMidYMid meet">
<g id="layer101" fill="#222222" stroke="none">
 <path d="M0 3840 l0 -3840 3840 0 3840 0 0 3840 0 3840 -3840 0 -3840 0 0 -3840z"/>
 </g>
<g id="layer102" fill="#e6e6e6" stroke="none">
 <path d="M6540 5014 c0 -4 25 -102 55 -219 l55 -212 0 -166 0 -167 190 0 190 0 1 153 0 152 -118 232 -118 233 -127 0 c-71 0 -128 -3 -128 -6z"/>
 <path d="M1970 4015 l0 -665 110 0 110 0 0 97 0 96 31 -46 c41 -63 91 -104 169 -141 62 -30 70 -31 195 -31 129 0 131 0 193 34 75 41 115 84 153 166 52 112 59 190 59 696 l0 459 -110 0 -110 0 0 -447 c0 -488 -6 -551 -55 -625 -42 -63 -93 -90 -180 -96 -163 -10 -262 58 -317 218 -21 63 -22 81 -26 508 l-3 442 -110 0 -109 0 0 -665z"/>
 <path d="M3480 4595 l0 -85 220 0 220 0 -2 -492 -3 -493 -173 -3 -173 -2 3 -83 3 -82 280 0 280 0 3 578 2 577 215 0 215 0 0 85 0 85 -545 0 -545 0 0 -85z"/>
 <path d="M5605 4666 c-131 -33 -214 -111 -268 -253 -22 -57 -22 -67 -27 -738 l-5 -680 -178 -3 -178 -2 3 -83 3 -82 285 0 285 0 5 755 5 755 24 48 c46 94 109 117 319 117 l112 0 0 90 0 90 -167 -1 c-97 0 -189 -6 -218 -13z"/>
 <path d="M374 4277 c-3 -8 -4 -54 -2 -103 l3 -89 625 0 625 0 3 103 3 102 -626 0 c-511 0 -627 -2 -631 -13z"/>
 <path d="M6640 3565 l0 -215 185 0 185 0 0 215 0 215 -185 0 -185 0 0 -215z"/>
 <path d="M374 3717 c-3 -8 -4 -54 -2 -103 l3 -89 628 -3 627 -2 0 105 0 105 -625 0 c-511 0 -627 -2 -631 -13z"/>
 <path d="M3920 2970 l0 -141 108 3 107 3 3 138 3 137 -111 0 -110 0 0 -140z"/>
 </g>

</svg>