<svg width="242" height="180" viewBox="0 0 242 180" fill="none" xmlns="http://www.w3.org/2000/svg">
<mask id="mask0_1215_24210" style="mask-type:alpha" maskUnits="userSpaceOnUse" x="17" y="71" width="201" height="36">
<path d="M205.165 95.4082C206.201 95.4082 207.201 95.2542 208.152 94.9366C209.104 94.6285 209.933 94.1938 210.628 93.6313C211.336 93.0424 211.897 92.3716 212.324 91.5919C212.738 90.8032 212.946 89.933 212.946 88.9993C212.946 88.0566 212.738 87.2048 212.324 86.4342C211.934 85.6816 211.36 84.9929 210.628 84.4036C209.238 83.2432 207.25 82.5905 205.165 82.5905C204.103 82.5905 203.091 82.7449 202.14 83.062C201.213 83.3703 200.396 83.8144 199.689 84.4036C198.993 84.9656 198.432 85.6456 198.017 86.4342C197.579 87.25 197.368 88.1199 197.384 88.9993C197.384 89.942 197.591 90.8032 198.017 91.5919C198.432 92.3716 198.993 93.0424 199.689 93.6313C200.396 94.1938 201.213 94.6285 202.14 94.9366C203.091 95.2542 204.103 95.4082 205.165 95.4082ZM205.165 99.0067C203.432 99.0067 201.774 98.753 200.2 98.2544C198.676 97.7469 197.286 97.0218 196.114 96.1335C194.956 95.1908 194.017 94.1118 193.346 92.9427C192.651 91.6916 192.309 90.3502 192.334 88.9994C192.334 87.6035 192.663 86.2983 193.346 85.0927C193.992 83.9141 194.944 82.8266 196.114 81.902C197.274 80.9951 198.664 80.2702 200.2 79.7716C201.774 79.2549 203.432 78.9921 205.165 78.9921C206.908 78.9921 208.543 79.2549 210.092 79.7805C211.653 80.2791 213.019 80.9862 214.166 81.902C215.361 82.8171 216.312 83.9051 216.947 85.0927C217.654 86.2983 217.996 87.6035 217.996 88.9994C217.996 90.4225 217.654 91.737 216.947 92.9427C216.3 94.121 215.349 95.2088 214.166 96.1335C213.007 97.0307 211.629 97.7559 210.092 98.2544C208.531 98.7624 206.859 99.0161 205.165 99.0067ZM158.037 95.2542C159.075 95.2542 160.075 95.0884 161.025 94.7557C162.013 94.4202 162.868 93.9759 163.599 93.414C164.356 92.8426 164.941 92.1878 165.365 91.4377C165.807 90.6675 166.038 89.8517 166.038 88.9994C166.038 88.1745 165.819 87.3498 165.365 86.5884C164.966 85.8448 164.356 85.1651 163.599 84.5849C162.868 84.0228 161.989 83.5695 161.025 83.2433C160.099 82.9169 159.074 82.7449 158.037 82.7449H154.671V95.2542L158.037 95.2542ZM149.622 79.1461H158.037C159.781 79.1461 161.44 79.4178 163.002 79.9621C164.575 80.4876 165.965 81.1949 167.173 82.0923C168.38 82.9895 169.356 84.0498 170.039 85.2193C170.734 86.4069 171.088 87.6671 171.088 88.9993C171.088 90.3321 170.734 91.5919 170.039 92.7793C169.356 93.9488 168.38 95.0094 167.173 95.9068C165.965 96.8043 164.551 97.5384 163.002 98.0734C161.44 98.59 159.781 98.8527 158.037 98.8527H149.622V79.1461ZM120.412 79.1461H125.449V98.8527H120.412V79.1461ZM80.8711 79.1461H85.9206V95.2542H98.3364V98.8527H80.8711V79.1461Z" fill="#080E14"/>
<path fill-rule="evenodd" clip-rule="evenodd" d="M26.2308 84.5117L34.1428 75.3037L42.0654 84.5117L34.1428 87.9468L26.2308 84.5117ZM34.1428 71.8685L45.559 85.1451L34.1428 90.0793L22.7383 85.145L34.1428 71.8685Z" fill="#00A3FF"/>
<path d="M34.1295 92.9958L20.8873 87.2676L20.5272 87.687C16.458 92.4338 17.3701 98.6437 22.7241 102.623C29.0149 107.299 39.2314 107.299 45.534 102.623C50.888 98.6437 51.8001 92.4338 47.7309 87.687L47.359 87.2676L34.1295 92.9958Z" fill="#00A3FF"/>
</mask>
<g mask="url(#mask0_1215_24210)">
<rect x="2.88672" y="9.30652" width="230.225" height="159.387" fill="white"/>
</g>
</svg>
