<svg width="242" height="180" viewBox="0 0 242 180" fill="none" xmlns="http://www.w3.org/2000/svg">
<g clip-path="url(#clip0_1215_24225)">
<path d="M202.78 114.484V111.501C202.78 111.382 202.683 111.286 202.563 111.286H185.338C185.218 111.286 185.121 111.382 185.121 111.501V114.484H192.122V133.783H195.779V114.484H202.78Z" fill="white"/>
<path d="M167.12 111.286C167 111.286 166.902 111.382 166.902 111.501V133.569C166.902 133.687 167 133.783 167.12 133.783H181.615C181.735 133.783 181.832 133.687 181.832 133.569V130.617H170.56V123.547H179.873V120.445H170.56V114.452H181.029V111.501C181.029 111.382 180.932 111.286 180.812 111.286H167.12Z" fill="white"/>
<path d="M158.71 133.652L158.789 133.783H161.599C161.718 133.783 161.816 133.687 161.816 133.569V111.501C161.816 111.382 161.718 111.286 161.599 111.286H158.222V126.866C157.636 125.946 156.955 124.932 156.181 123.825C155.193 122.386 154.132 120.925 152.995 119.444C151.88 117.941 150.743 116.491 149.585 115.094C148.447 113.675 147.372 112.433 146.36 111.371L146.279 111.286H143.635C143.515 111.286 143.418 111.382 143.418 111.501V133.569C143.418 133.687 143.515 133.783 143.635 133.783H147.011V117.093C147.473 117.631 147.964 118.227 148.486 118.882C149.19 119.766 149.916 120.714 150.664 121.726L150.664 121.727L150.665 121.728C151.412 122.718 152.16 123.751 152.907 124.825L152.908 124.827L152.909 124.828C153.678 125.903 154.415 126.968 155.12 128.022L155.121 128.023L155.122 128.024C155.826 129.056 156.476 130.056 157.074 131.024L157.075 131.026L157.076 131.028C157.696 131.998 158.241 132.873 158.71 133.652Z" fill="white"/>
<path d="M139.004 111.735L139.087 111.645C139.214 111.507 139.115 111.286 138.927 111.286H134.922L134.841 111.379C134.31 111.988 133.649 112.703 132.859 113.525C132.089 114.327 131.266 115.171 130.389 116.057C129.512 116.944 128.625 117.83 127.727 118.716C127.009 119.408 126.338 120.046 125.716 120.629V111.286H122.275C122.156 111.286 122.059 111.382 122.059 111.501V133.569C122.059 133.687 122.156 133.783 122.275 133.783H125.716V123.577C126.471 124.065 127.243 124.636 128.032 125.29L128.033 125.291L128.034 125.292C128.99 126.068 129.924 126.917 130.838 127.84L130.841 127.842L130.843 127.844C131.778 128.745 132.659 129.699 133.487 130.705L133.488 130.706L133.489 130.707C134.317 131.692 135.049 132.676 135.685 133.659L135.765 133.783H139.668C139.835 133.783 139.94 133.605 139.856 133.462L139.81 133.382C139.224 132.376 138.489 131.32 137.605 130.213C136.744 129.109 135.818 128.026 134.829 126.964C133.839 125.903 132.827 124.904 131.794 123.969C130.858 123.123 129.963 122.395 129.111 121.789C129.836 121.091 130.605 120.341 131.417 119.539C132.317 118.651 133.217 117.752 134.117 116.843C135.038 115.913 135.917 115.014 136.752 114.147L136.754 114.146L136.755 114.145C137.59 113.257 138.34 112.454 139.004 111.735Z" fill="white"/>
<path fill-rule="evenodd" clip-rule="evenodd" d="M101.295 111.118C101.175 111.118 101.078 111.214 101.078 111.332V133.582C101.078 133.7 101.175 133.796 101.295 133.796H104.394V125.616H108.922C109.431 126.217 109.928 126.847 110.412 127.504L110.414 127.507L110.416 127.509C111.209 128.535 111.941 129.604 112.613 130.718L112.614 130.72L112.614 130.721C113.223 131.707 113.754 132.68 114.208 133.641L114.282 133.796H117.949C118.106 133.796 118.211 133.636 118.146 133.495C117.724 132.583 117.267 131.69 116.759 130.82C116.069 129.604 115.313 128.4 114.489 127.209C114.018 126.528 113.538 125.866 113.047 125.224C114.415 124.811 115.497 124.065 116.281 122.981L116.281 122.981C117.221 121.669 117.687 120.128 117.687 118.366C117.687 117.156 117.473 116.049 117.042 115.049C116.609 114.034 115.957 113.192 115.089 112.528C114.226 111.86 113.164 111.435 111.913 111.244C111.621 111.192 111.32 111.16 111.009 111.149C110.706 111.128 110.441 111.118 110.216 111.118C109.265 111.118 108.314 111.118 107.363 111.118C105.34 111.117 103.318 111.117 101.295 111.118ZM114.308 118.366C114.308 118.951 114.209 119.526 114.012 120.093C113.818 120.638 113.508 121.115 113.081 121.527C112.676 121.918 112.141 122.195 111.464 122.35C111.25 122.398 111.019 122.432 110.771 122.451H110.77C110.527 122.471 110.311 122.481 110.123 122.481H104.394V114.252H110.123C110.311 114.252 110.526 114.262 110.77 114.282L110.776 114.282L110.782 114.282C111.023 114.292 111.247 114.325 111.454 114.381L111.46 114.383L111.467 114.384C112.142 114.529 112.674 114.805 113.078 115.204L113.079 115.205L113.081 115.206C113.508 115.618 113.817 116.1 114.011 116.655L114.012 116.656V116.656C114.209 117.212 114.308 117.782 114.308 118.366Z" fill="white"/>
<path fill-rule="evenodd" clip-rule="evenodd" d="M92.9418 130.813L92.9421 130.814L92.9424 130.815C93.2644 131.725 93.6077 132.657 93.9723 133.61L94.0385 133.783H97.7077C97.8581 133.783 97.9629 133.635 97.9117 133.495C97.11 131.323 96.3009 129.152 95.4756 126.988C94.7258 125.001 93.9866 123.119 93.2578 121.342C92.5506 119.566 91.843 117.873 91.1354 116.265C90.4255 114.63 89.6784 113.012 88.9003 111.408C88.8644 111.334 88.7882 111.286 88.7047 111.286H85.7783C85.6948 111.286 85.6187 111.334 85.5827 111.408C84.8046 113.012 84.0575 114.631 83.3476 116.265C82.6404 117.873 81.9222 119.565 81.1936 121.341L81.193 121.342L81.1926 121.344C80.4854 123.12 79.7572 125.001 79.0074 126.988C78.1821 129.152 77.3731 131.323 76.5717 133.495C76.5201 133.635 76.6249 133.783 76.7756 133.783H80.2878H80.3567L80.4369 133.697C81.2841 132.8 82.2312 131.919 83.2784 131.055L83.2794 131.054L83.2804 131.053C84.3316 130.167 85.4277 129.346 86.5684 128.589L86.571 128.587L86.5734 128.585C87.6974 127.802 88.8281 127.099 89.9661 126.476L89.9675 126.475L89.9688 126.474C90.3786 126.244 90.7822 126.03 91.1797 125.831L91.9471 127.995L91.9478 127.997C92.2898 128.946 92.6211 129.885 92.9418 130.813ZM88.9948 120.142L88.9955 120.143L88.9965 120.145C89.3055 120.917 89.6145 121.702 89.9236 122.5C89.9003 122.51 89.8767 122.52 89.8527 122.531C88.7653 123.02 87.5963 123.652 86.3465 124.426C85.1499 125.166 83.9627 125.971 82.7854 126.84L83.2837 125.434C83.9434 123.608 84.603 121.844 85.2627 120.143C85.8691 118.61 86.5009 117.135 87.1575 115.718C87.7952 117.134 88.4077 118.609 88.9948 120.142Z" fill="white"/>
<path d="M77.4635 114.484V111.501C77.4635 111.382 77.3664 111.286 77.2466 111.286H60.0217C59.9019 111.286 59.8047 111.382 59.8047 111.501V114.484H66.8054V133.569C66.8054 133.687 66.9025 133.783 67.0224 133.783H70.2459C70.3657 133.783 70.4629 133.687 70.4629 133.569V114.484H77.4635Z" fill="white"/>
<path d="M44.0018 133.508L44.0011 133.508C42.6744 132.95 41.5709 132.153 40.6961 131.117L40.6948 131.116L40.6941 131.115C39.828 130.065 39.2657 128.829 39.0044 127.41C38.9913 127.339 39.0078 127.267 39.0501 127.208C39.0924 127.149 39.1569 127.109 39.229 127.098L42.1466 126.645C42.2847 126.623 42.4167 126.709 42.4516 126.842C42.8061 128.202 43.5359 129.257 44.6425 130.022C45.7653 130.78 47.0896 131.163 48.6265 131.163C49.6234 131.163 50.5143 131.011 51.303 130.712C52.1009 130.403 52.7201 129.969 53.1723 129.416C53.6169 128.873 53.8415 128.229 53.8415 127.472C53.8415 127.002 53.7571 126.618 53.6006 126.309C53.5991 126.306 53.5978 126.303 53.5965 126.301C53.4439 125.971 53.231 125.696 52.9567 125.472C52.9541 125.47 52.9515 125.468 52.949 125.466C52.6736 125.223 52.3575 125.018 51.999 124.851C51.6323 124.68 51.25 124.539 50.852 124.428L50.8484 124.427L45.0284 122.721C44.3806 122.53 43.7542 122.29 43.1492 122.002L43.1476 122.001L43.1457 122.001C42.5315 121.697 41.9814 121.323 41.4965 120.877L41.4949 120.876L41.4941 120.875C41.0025 120.412 40.6125 119.861 40.3239 119.226L40.3233 119.225C40.03 118.568 39.888 117.805 39.888 116.942C39.888 115.558 40.2503 114.364 40.987 113.372L40.9873 113.372C41.7272 112.38 42.7247 111.627 43.9705 111.109C45.2143 110.592 46.61 110.342 48.1527 110.353C49.7165 110.363 51.1229 110.64 52.367 111.189C53.6206 111.727 54.6604 112.504 55.4817 113.519C56.3153 114.537 56.8712 115.751 57.1537 117.156C57.1679 117.226 57.1526 117.3 57.1113 117.359C57.07 117.419 57.0062 117.459 56.9342 117.471L53.9374 117.988C53.8664 118 53.7933 117.984 53.7344 117.943C53.6754 117.902 53.6355 117.839 53.6233 117.769C53.472 116.893 53.1359 116.149 52.6192 115.532L52.6162 115.528C52.1052 114.896 51.4643 114.411 50.6892 114.073L50.6865 114.072C49.9099 113.723 49.0543 113.542 48.1161 113.532C47.2168 113.522 46.4129 113.664 45.7005 113.951C44.986 114.239 44.4284 114.636 44.0172 115.138L44.0156 115.14C43.6122 115.624 43.4115 116.179 43.4115 116.817C43.4115 117.45 43.5943 117.938 43.9406 118.308C44.3144 118.696 44.7739 119.009 45.3232 119.246C45.9056 119.482 46.471 119.676 47.0196 119.829L47.0209 119.83L51.364 121.065C51.8703 121.204 52.4485 121.394 53.0978 121.636C53.7774 121.884 54.4327 122.235 55.0635 122.686C55.7128 123.139 56.2459 123.744 56.6649 124.494C57.0953 125.255 57.3016 126.2 57.3016 127.316C57.3016 128.437 57.072 129.445 56.6057 130.333C56.1531 131.215 55.5178 131.956 54.7027 132.553L54.7008 132.555C53.8903 133.138 52.9521 133.579 51.8894 133.879C50.8265 134.189 49.6908 134.343 48.4838 134.343C46.8354 134.343 45.34 134.066 44.0018 133.508Z" fill="white"/>
<path fill-rule="evenodd" clip-rule="evenodd" d="M92.8908 71.2884C92.8908 85.6108 104.657 97.2213 119.17 97.2213C133.684 97.2213 145.451 85.6108 145.451 71.2884C145.451 56.9659 133.684 45.3556 119.17 45.3556C104.657 45.3556 92.8908 56.9659 92.8908 71.2884Z" fill="white"/>
<path fill-rule="evenodd" clip-rule="evenodd" d="M107.576 65.1789L108.225 63.2012C108.357 62.7989 108.678 62.4859 109.088 62.3625L111.101 61.7513C111.38 61.6673 111.383 61.2792 111.106 61.1907L109.101 60.5505C108.694 60.4204 108.377 60.1029 108.251 59.6992L107.633 57.7118C107.547 57.4374 107.154 57.4344 107.064 57.708L106.416 59.6858C106.284 60.0873 105.962 60.4003 105.553 60.5245L103.539 61.1349C103.26 61.2197 103.257 61.6071 103.535 61.6955L105.539 62.3357C105.946 62.4658 106.264 62.784 106.389 63.1878L107.008 65.1744C107.093 65.4495 107.487 65.4525 107.576 65.1789Z" fill="#767676"/>
<path fill-rule="evenodd" clip-rule="evenodd" d="M139.413 64.0283C138.583 63.1121 137.287 62.5962 136.027 62.3847C134.757 62.1815 133.426 62.2004 132.172 62.4201C129.636 62.8435 127.332 63.88 125.322 65.1585C124.278 65.786 123.388 66.5121 122.466 67.2515C122.021 67.6255 121.617 68.0237 121.195 68.4163L120.042 69.5481C118.789 70.8401 117.555 72.0168 116.36 72.9922C115.161 73.9631 114.04 74.7005 112.934 75.2154C111.83 75.7331 110.648 76.0375 109.109 76.0862C107.582 76.1393 105.776 75.8674 103.844 75.4186C101.901 74.9718 99.8614 74.335 97.582 73.787C98.3774 75.9642 99.575 77.8883 101.113 79.6473C102.668 81.3756 104.611 82.9506 107.106 83.9866C109.566 85.0456 112.657 85.4258 115.547 84.8523C118.444 84.3018 120.987 82.9788 123.042 81.4485C125.103 79.9026 126.77 78.1418 128.176 76.3111C128.563 75.8053 128.769 75.5222 129.049 75.1269L129.825 73.9925C130.365 73.2909 130.856 72.492 131.389 71.7969C132.436 70.3409 133.468 68.8867 134.667 67.5469C135.27 66.8673 135.906 66.2173 136.658 65.5927C137.032 65.2878 137.437 64.9894 137.885 64.7206C138.341 64.4307 138.821 64.2037 139.413 64.0283Z" fill="#ACACAC"/>
<path fill-rule="evenodd" clip-rule="evenodd" d="M139.413 64.0286C138.521 61.8075 136.863 59.9379 134.637 58.5583C132.425 57.1938 129.352 56.4975 126.308 57.0911C124.804 57.3781 123.346 57.9308 122.068 58.6668C120.795 59.3998 119.654 60.2823 118.666 61.229C118.173 61.7039 117.726 62.1993 117.281 62.6976L116.129 64.1473L114.349 66.4809C112.081 69.4834 109.637 73.0021 105.628 74.0447C101.692 75.0682 99.9845 74.1617 97.582 73.7872C98.0215 74.9063 98.5657 75.9932 99.3032 76.9492C100.027 77.9247 100.882 78.8408 101.945 79.6263C102.482 80.0035 103.05 80.3757 103.68 80.6915C104.307 80.9965 104.983 81.265 105.705 81.4669C107.14 81.8552 108.757 81.9915 110.322 81.7824C111.888 81.5762 113.384 81.0868 114.693 80.4365C116.01 79.7921 117.158 79.0075 118.183 78.1797C120.221 76.5098 121.806 74.6647 123.145 72.7996C123.818 71.8672 124.429 70.9171 124.995 69.9668L125.66 68.8354C125.864 68.5046 126.069 68.1719 126.278 67.862C127.122 66.6169 127.946 65.6185 128.948 64.8691C129.936 64.1004 131.311 63.5324 133.149 63.4005C134.979 63.2669 137.092 63.5136 139.413 64.0286Z" fill="#545454"/>
<path fill-rule="evenodd" clip-rule="evenodd" d="M129.508 82.482C129.508 84.1135 130.849 85.4364 132.502 85.4364C134.155 85.4364 135.494 84.1135 135.494 82.482C135.494 80.8508 134.155 79.5276 132.502 79.5276C130.849 79.5276 129.508 80.8508 129.508 82.482Z" fill="#ACACAC"/>
</g>
<defs>
<clipPath id="clip0_1215_24225">
<rect width="164" height="89.2889" fill="white" transform="translate(39 45.3556)"/>
</clipPath>
</defs>
</svg>
