<svg width="242" height="180" viewBox="0 0 242 180" fill="none" xmlns="http://www.w3.org/2000/svg">
<g clip-path="url(#clip0_1215_24114)">
<path d="M76.0449 107.986H76.134C77.2711 107.986 78.23 107.12 78.3191 105.911L78.6701 103.146C77.7951 103.317 76.9252 103.406 76.0501 103.406C75.1751 103.406 74.3052 103.317 73.4301 103.146L73.7812 105.911C73.8703 107.037 74.8292 107.986 75.9663 107.986H76.0449ZM91.6758 107.379H95.9569V82.9986C95.9569 79.6269 94.3849 77.4638 91.6758 76.6027V107.379ZM56.0438 107.379H60.3249V76.6027C57.532 77.4638 56.0438 79.7151 56.0438 82.9986V107.379ZM78.6649 103.229C81.4578 102.539 83.2918 100.547 83.8158 97.0926L86.5249 76.3433C83.3809 77.1214 81.7198 79.4557 81.1958 83.258L78.6649 103.229ZM73.3358 103.229L70.8049 83.258C70.2809 79.4557 68.6198 77.1214 65.4758 76.3433L68.1849 97.0926C68.6198 100.547 70.4538 102.539 73.3358 103.229ZM91.6758 76.6027V74.6989C91.6758 72.9716 90.7169 72.0171 89.3178 72.0171C87.9187 72.0171 87.0489 72.7952 86.7869 74.5226L86.5249 76.3381C87.2218 76.1669 87.924 76.1669 88.6209 76.1669C89.6689 76.1669 90.7169 76.3433 91.6758 76.6027ZM60.3249 76.6027C61.2838 76.3433 62.248 76.1721 63.2069 76.1721H63.296C63.3851 76.1721 63.4689 76.1721 63.4689 76.1721C64.1658 76.1721 64.7789 76.2603 65.392 76.3433L65.13 74.5278C64.868 72.8004 63.9091 72.0223 62.5991 72.0223C61.2 72.0223 60.2411 72.9716 60.2411 74.7041V76.6079H60.3249V76.6027Z" fill="white"/>
<path d="M110.456 72.6237H106.264V107.379H110.456V72.6237Z" fill="white"/>
<path d="M144.338 107.986C145.821 107.986 146.696 106.948 146.696 105.304V103.4C145.738 103.66 144.689 103.831 143.641 103.831H143.552H143.463C142.766 103.831 142.153 103.743 141.456 103.66L141.891 105.646C142.242 107.031 142.856 107.986 144.338 107.986ZM120.758 107.379H125.04V76.6024C122.509 77.4687 120.758 79.3673 120.758 82.8272V107.379ZM141.456 103.66L136.478 82.4797C135.52 78.418 133.507 76.6854 130.363 76.2549L135.252 97.4347C136.133 101.502 138.312 103.229 141.456 103.66ZM146.696 103.4C149.227 102.534 150.977 100.718 150.977 97.9535V72.6238H146.696V103.4ZM125.04 76.6854C125.998 76.3379 127.046 76.1667 128.094 76.1667C128.184 76.1667 128.183 76.1667 128.267 76.1667H128.356C129.053 76.1667 129.666 76.2549 130.363 76.3379L129.839 74.1748C129.577 73.0491 128.88 72.0999 127.392 72.0999C125.82 72.0999 125.034 73.3085 125.034 74.7817V76.7736V76.6854H125.04Z" fill="white"/>
<path d="M156.568 107.378H161.111L163.82 96.7442H179.802L182.511 107.378H187.054L180.069 82.1316C179.283 79.2785 177.36 77.2918 174.74 76.5137L179.021 93.2843H164.784L168.976 76.5137C166.267 77.2918 164.433 79.2785 163.647 82.1316L156.741 107.378H156.568ZM168.882 76.5137C169.841 76.2543 170.805 76.0832 171.764 76.0832C172.723 76.0832 173.687 76.2543 174.646 76.5137L174.122 74.2676C173.771 72.8826 173.163 72.0215 171.853 72.0215C170.543 72.0215 169.93 72.8878 169.584 74.2676L169.06 76.5137H168.882Z" fill="white"/>
</g>
<defs>
<clipPath id="clip0_1215_24114">
<rect width="131" height="36" fill="white" transform="translate(56 72)"/>
</clipPath>
</defs>
</svg>
