<svg width="242" height="180" viewBox="0 0 242 180" fill="none" xmlns="http://www.w3.org/2000/svg">
<mask id="mask0_1215_24167" style="mask-type:alpha" maskUnits="userSpaceOnUse" x="9" y="71" width="224" height="39">
<path d="M78.7576 75.5821H66.6766V78.6283H75.5463C77.3329 78.6283 78.7576 80.0871 78.7576 81.8676V84.5277C78.7576 86.3297 77.3329 87.7669 75.5463 87.7669H63.6562V84.7208H75.7378V81.6745H66.868C65.0813 81.6745 63.6562 80.2158 63.6562 78.4352V75.7752C63.6562 73.9732 65.0813 72.5359 66.868 72.5359H78.7576V75.5821Z" fill="black"/>
<path d="M93.409 72.5359C95.1956 72.5359 96.642 73.9732 96.642 75.7752V84.5277C96.642 86.3297 95.1956 87.7669 93.409 87.7669H84.1142C82.3276 87.7669 80.9023 86.3297 80.9023 84.5277V75.7752C80.9023 73.9732 82.3276 72.5359 84.1142 72.5359H93.409ZM93.6005 75.5821H83.9227V84.7208H93.6005V75.5821Z" fill="black"/>
<path d="M102.016 84.6137H113.799V87.896H100.846C99.6975 87.896 98.7617 86.9521 98.7617 85.7936V72.4075H102.016V84.6137Z" fill="black"/>
<path d="M129.041 72.5359C130.488 72.5359 131.658 73.6943 131.658 75.1531V87.7669H128.616V82.7686H118.938V87.7669H115.918V75.1531C115.918 73.6943 117.066 72.5359 118.513 72.5359H129.041ZM128.616 75.5821H118.938V79.7224H128.616V75.5821Z" fill="black"/>
<path d="M146.475 72.5359H149.517V85.7933C149.517 86.8874 148.623 87.7669 147.539 87.7669H145.199C144.455 87.7884 143.795 87.3808 143.455 86.7158L137.585 75.5821H136.798V87.7669H133.777V74.5309C133.777 73.4154 134.649 72.5359 135.734 72.5359H138.201C138.925 72.5359 139.605 72.922 139.945 73.587L145.816 84.7208H146.475V72.5359Z" fill="black"/>
<path d="M164.772 72.5359C166.218 72.5359 167.388 73.6943 167.388 75.1531V87.7669H164.346V82.7686H154.668V87.7669H151.648V75.1531C151.648 73.6943 152.797 72.5359 154.243 72.5359H164.772ZM164.346 75.5821H154.668V79.7224H164.346V75.5821Z" fill="black"/>
<path d="M78.4601 95.6236H66.6766V98.6698H78.4601V101.716H66.6766V107.808H63.6562V92.5774H78.4601V95.6236Z" fill="black"/>
<path d="M93.0926 92.5774C94.8792 92.5774 96.3256 94.0147 96.3256 95.8166V104.569C96.3256 106.371 94.8792 107.808 93.0926 107.808H83.7972C82.0106 107.808 80.5859 106.371 80.5859 104.569V95.8166C80.5859 94.0147 82.0106 92.5774 83.7972 92.5774H93.0926ZM93.2835 95.6236H83.6057V104.762H93.2835V95.6236Z" fill="black"/>
<path d="M111.147 92.5774H114.189V102.703C114.168 105.534 111.913 107.808 109.105 107.808H103.511C100.704 107.808 98.4492 105.534 98.4492 102.703V92.5774H101.47V102.081C101.47 103.561 102.661 104.762 104.129 104.762H108.489C109.956 104.762 111.147 103.561 111.147 102.081V92.5774Z" fill="black"/>
<path d="M129.011 92.5774H132.052V105.835C132.052 106.929 131.159 107.808 130.074 107.808H127.735C126.99 107.83 126.33 107.422 125.99 106.757L120.12 95.6236H119.333V107.808H116.312V94.5724C116.312 93.4569 117.185 92.5774 118.269 92.5774H120.737C121.46 92.5774 122.141 92.9635 122.481 93.6285L128.351 104.762H129.011V92.5774Z" fill="black"/>
<path d="M144.828 92.5774C147.636 92.5774 149.89 94.8727 149.911 97.683V102.703C149.89 105.534 147.636 107.808 144.828 107.808H134.172V92.5774H144.828ZM146.87 98.3265C146.87 96.8249 145.679 95.6236 144.212 95.6236H137.192V104.762H144.212C145.679 104.762 146.87 103.561 146.87 102.081V98.3265Z" fill="black"/>
<path d="M165.162 92.5774C166.609 92.5774 167.779 93.7358 167.779 95.1946V107.808H164.737V102.81H155.059V107.808H152.039V95.1946C152.039 93.7358 153.187 92.5774 154.634 92.5774H165.162ZM164.737 95.6236H155.059V99.7639H164.737V95.6236Z" fill="black"/>
<path d="M169.906 92.5774H185.008V95.6236H178.967V107.808H175.947V95.6236H169.906V92.5774Z" fill="black"/>
<path d="M190.161 107.808H187.141V92.5774H190.161V107.808Z" fill="black"/>
<path d="M204.804 92.5774C206.59 92.5774 208.036 94.0147 208.036 95.8166V104.569C208.036 106.371 206.59 107.808 204.804 107.808H195.508C193.722 107.808 192.297 106.371 192.297 104.569V95.8166C192.297 94.0147 193.722 92.5774 195.508 92.5774H204.804ZM204.995 95.6236H195.317V104.762H204.995V95.6236Z" fill="black"/>
<path d="M222.858 92.5774H225.9V105.835C225.9 106.929 225.006 107.808 223.922 107.808H221.582C220.837 107.83 220.178 107.422 219.838 106.757L213.967 95.6236H213.18V107.808H210.16V94.5724C210.16 93.4569 211.032 92.5774 212.117 92.5774H214.584C215.307 92.5774 215.988 92.9635 216.328 93.6285L222.198 104.762H222.858V92.5774Z" fill="black"/>
<mask id="mask1_1215_24167" style="mask-type:luminance" maskUnits="userSpaceOnUse" x="9" y="72" width="40" height="37">
<path d="M48.049 72.965H9V108.252H48.049V72.965Z" fill="white"/>
</mask>
<g mask="url(#mask1_1215_24167)">
<path d="M47.8478 100.786L41.4017 107.771C41.2616 107.923 41.092 108.044 40.9036 108.127C40.7152 108.209 40.512 108.252 40.3066 108.252H9.74836C9.60255 108.252 9.45992 108.209 9.33799 108.128C9.21606 108.047 9.12014 107.932 9.06202 107.797C9.0039 107.662 8.98611 107.513 9.01084 107.367C9.03557 107.222 9.10173 107.088 9.20121 106.98L15.6523 99.9947C15.792 99.8434 15.961 99.7227 16.1489 99.64C16.3367 99.5574 16.5392 99.5145 16.7441 99.5141H47.3006C47.4465 99.5142 47.5891 99.5572 47.7111 99.638C47.833 99.7188 47.9288 99.8338 47.987 99.9689C48.0451 100.104 48.0629 100.253 48.0382 100.399C48.0135 100.544 47.9473 100.678 47.8478 100.786ZM41.4017 86.7201C41.2616 86.5684 41.092 86.4474 40.9036 86.3647C40.7152 86.2821 40.512 86.2394 40.3066 86.2396H9.74836C9.60255 86.2396 9.45992 86.2826 9.33799 86.3634C9.21606 86.4442 9.12014 86.5592 9.06202 86.6943C9.0039 86.8294 8.98611 86.9787 9.01084 87.1239C9.03557 87.2691 9.10173 87.4039 9.20121 87.5116L15.6523 94.4967C15.792 94.648 15.961 94.7687 16.1489 94.8514C16.3367 94.9341 16.5392 94.9769 16.7441 94.9772H47.3006C47.4465 94.9772 47.5891 94.9342 47.7111 94.8534C47.833 94.7726 47.9288 94.6576 47.987 94.5225C48.0451 94.3874 48.0629 94.2381 48.0382 94.0929C48.0135 93.9477 47.9473 93.813 47.8478 93.7053L41.4017 86.7201ZM9.74836 81.7027H40.3066C40.512 81.7028 40.7152 81.6602 40.9036 81.5775C41.092 81.4948 41.2616 81.3738 41.4017 81.2221L47.8478 74.237C47.9473 74.1293 48.0135 73.9945 48.0382 73.8493C48.0629 73.7042 48.0451 73.5548 47.987 73.4197C47.9288 73.2846 47.833 73.1696 47.7111 73.0888C47.5891 73.008 47.4465 72.965 47.3006 72.965H16.7441C16.5392 72.9653 16.3367 73.0082 16.1489 73.0908C15.961 73.1735 15.792 73.2942 15.6523 73.4455L9.20287 80.4307C9.10349 80.5383 9.03736 80.6729 9.01257 80.8179C8.98779 80.9629 9.00544 81.1121 9.06335 81.2471C9.12126 81.3822 9.21693 81.4972 9.33861 81.5781C9.46029 81.6591 9.60269 81.7023 9.74836 81.7027Z" fill="url(#paint0_linear_1215_24167)"/>
</g>
</mask>
<g mask="url(#mask0_1215_24167)">
<rect x="9" y="12.5308" width="224" height="155.077" fill="white"/>
</g>
<defs>
<linearGradient id="paint0_linear_1215_24167" x1="12.2962" y1="109.093" x2="44.7126" y2="72.9257" gradientUnits="userSpaceOnUse">
<stop offset="0.08" stop-color="#9945FF"/>
<stop offset="0.3" stop-color="#8752F3"/>
<stop offset="0.5" stop-color="#5497D5"/>
<stop offset="0.6" stop-color="#43B4CA"/>
<stop offset="0.72" stop-color="#28E0B9"/>
<stop offset="0.97" stop-color="#19FB9B"/>
</linearGradient>
</defs>
</svg>
