<svg width="242" height="180" viewBox="0 0 242 180" fill="none" xmlns="http://www.w3.org/2000/svg">
<mask id="mask0_1215_24241" style="mask-type:alpha" maskUnits="userSpaceOnUse" x="18" y="62" width="206" height="56">
<g clip-path="url(#clip0_1215_24241)">
<path d="M33.6054 62.7883C31.5318 62.7883 29.4922 63.2218 27.5545 63.9888C25.6509 64.7891 23.9172 65.923 22.4555 67.3903C20.9938 68.8576 19.838 70.5583 19.0562 72.4591C18.2743 74.3599 17.8664 76.3941 17.9004 78.4283V83.5972H30.6479V76.094C30.6479 75.7272 30.7159 75.3937 30.8519 75.0602C30.9879 74.7268 31.1918 74.4266 31.4298 74.1932C31.6677 73.9598 31.9737 73.7597 32.3136 73.6263C32.6535 73.4929 32.9935 73.4262 33.3674 73.4262H33.8433C34.1832 73.4262 34.5572 73.4929 34.8971 73.6263C35.237 73.7597 35.543 73.9598 35.7809 74.1932C36.0189 74.4266 36.2228 74.7268 36.3588 75.0602C36.4948 75.3937 36.5628 75.7272 36.5628 76.094V96.1693C38.2285 96.1693 39.8941 95.8359 41.4578 95.2023C43.0215 94.5687 44.4153 93.6349 45.605 92.4677C46.7948 91.3006 47.7466 89.9 48.3585 88.3993C49.0044 86.8653 49.3443 85.2313 49.3443 83.5972V78.4283C49.3443 74.2932 47.7126 70.2915 44.7552 67.3569C43.2935 65.8896 41.5598 64.7558 39.6562 63.9554C37.7186 63.1884 35.679 62.7883 33.6054 62.7883Z" fill="#1D1D1B"/>
<path d="M33.8382 106.34H33.3623C33.0224 106.34 32.6485 106.274 32.3085 106.14C31.9686 106.007 31.6967 105.807 31.4247 105.573C31.1868 105.34 30.9828 105.04 30.8468 104.706C30.7108 104.373 30.6429 104.039 30.6429 103.673V83.5973C28.9772 83.5973 27.3115 83.9307 25.7478 84.5644C24.1841 85.198 22.7904 86.1317 21.6006 87.2989C20.4108 88.466 19.459 89.8666 18.8471 91.3673C18.2013 92.9013 17.8613 94.5353 17.8613 96.1694V101.272C17.8273 103.306 18.2353 105.34 19.0171 107.241C19.799 109.142 20.9547 110.876 22.4165 112.31C23.8782 113.777 25.6118 114.911 27.5155 115.711C29.4191 116.511 31.4927 116.912 33.5663 116.912C35.6399 116.912 37.7135 116.511 39.6171 115.711C41.5208 114.911 43.2884 113.777 44.7161 112.31C46.1778 110.842 47.3336 109.142 48.1155 107.241C48.8973 105.34 49.2712 103.306 49.2712 101.272V96.1694H36.5237V103.673C36.5237 104.039 36.4557 104.373 36.3198 104.706C36.1838 105.04 35.9798 105.34 35.7419 105.573C35.5039 105.807 35.198 106.007 34.858 106.14C34.5521 106.274 34.2122 106.34 33.8382 106.34ZM71.129 78.6618H66.6419V101.038H79.7633V96.803H71.095C71.129 96.8363 71.129 78.6618 71.129 78.6618ZM94.1085 86.9654C93.4627 86.1984 92.6808 85.5648 91.763 85.1646C90.8452 84.7644 89.8254 84.5643 88.8396 84.631C87.7858 84.631 86.766 84.8311 85.7802 85.2646C84.8283 85.6982 83.9785 86.2984 83.2646 87.0988C81.7689 88.7328 80.9531 90.8671 80.9531 93.1014C80.9531 95.3023 81.7689 97.4366 83.2646 99.104C83.9445 99.8709 84.8283 100.505 85.7802 100.938C86.732 101.372 87.7858 101.572 88.8396 101.572C91.1171 101.572 92.8848 100.805 94.1085 99.2374V101.138H98.2897V85.1646H94.1085V86.9654ZM92.8508 96.3361C92.4429 96.7363 91.933 97.0697 91.3551 97.3032C90.8112 97.5366 90.1993 97.6367 89.6214 97.6033C89.0435 97.6367 88.4316 97.5033 87.8877 97.3032C87.3439 97.0697 86.8339 96.7696 86.426 96.3361C85.6102 95.4357 85.1683 94.3019 85.1683 93.1014C85.1683 91.9008 85.6102 90.7337 86.426 89.8666C86.8339 89.4665 87.3439 89.133 87.8877 88.8996C88.4316 88.6661 89.0435 88.5661 89.6214 88.5994C90.2333 88.5661 90.8112 88.6995 91.3551 88.8996C91.899 89.133 92.4089 89.4331 92.8508 89.8666C93.6666 90.767 94.1425 91.9008 94.1425 93.1014C94.1085 94.2685 93.6666 95.4357 92.8508 96.3361ZM109.066 95.8025L104.85 85.0646H100.261L106.89 100.538C106.618 101.472 106.074 102.272 105.326 102.906C104.545 103.439 103.593 103.673 102.641 103.606V107.441C104.477 107.608 106.346 107.107 107.842 106.04C109.236 105.007 110.357 103.339 111.207 101.071L117.122 85.0646H112.635L109.066 95.8025ZM126.198 84.631C125.043 84.5977 123.921 84.7978 122.867 85.198C121.813 85.5981 120.861 86.2317 120.046 87.0321C118.482 88.6661 117.632 90.8337 117.632 93.068C117.632 95.3023 118.516 97.4699 120.08 99.104C121.711 100.705 123.853 101.505 126.538 101.505C129.666 101.505 132.011 100.371 133.609 98.0702L130.244 96.136C129.802 96.6696 129.258 97.1031 128.612 97.3699C127.966 97.6367 127.286 97.7701 126.606 97.7367C124.125 97.7367 122.595 96.7363 122.051 94.7354H134.289C134.391 94.1685 134.459 93.6016 134.459 93.0347C134.527 90.8004 133.677 88.6328 132.147 87.0321C131.399 86.2317 130.481 85.5981 129.462 85.198C128.374 84.7978 127.286 84.5977 126.198 84.631ZM121.949 91.5674C122.119 90.6336 122.663 89.7999 123.411 89.1997C124.227 88.5994 125.213 88.2993 126.198 88.366C127.116 88.366 128 88.6328 128.748 89.1663C129.53 89.7666 130.074 90.6336 130.21 91.6007C130.21 91.5674 121.949 91.5674 121.949 91.5674ZM141.495 87.8324V85.0979H137.314V101.071H141.495V93.4348C141.495 91.9008 142.005 90.8004 142.991 90.1334C144.011 89.4665 145.201 89.1997 146.424 89.3664V84.7644C145.371 84.7644 144.351 85.0312 143.433 85.5314C142.515 86.0317 141.835 86.8653 141.495 87.8324ZM166.786 82.13V78.6618H151.931V82.897H161.144L151.693 97.5366V101.071H166.99V96.8363H157.37C157.336 96.8363 166.786 82.13 166.786 82.13ZM176.848 84.631C175.693 84.5977 174.571 84.7978 173.517 85.198C172.463 85.5981 171.512 86.2317 170.696 87.0321C169.132 88.6661 168.282 90.8337 168.282 93.068C168.282 95.3023 169.166 97.4699 170.73 99.104C172.361 100.705 174.503 101.505 177.188 101.505C180.316 101.505 182.661 100.371 184.259 98.0702L180.894 96.136C180.452 96.6696 179.908 97.1031 179.262 97.3699C178.616 97.6367 177.936 97.7701 177.256 97.7367C174.775 97.7367 173.245 96.7363 172.701 94.7354H184.939C185.041 94.1685 185.109 93.6016 185.109 93.0347C185.177 90.8004 184.327 88.6328 182.797 87.0321C182.049 86.2317 181.132 85.5981 180.112 85.198C179.058 84.7978 177.936 84.5977 176.848 84.631ZM172.599 91.5674C172.769 90.6336 173.313 89.7999 174.061 89.1997C174.877 88.5994 175.863 88.2993 176.848 88.366C177.766 88.366 178.65 88.6328 179.398 89.1663C180.18 89.7666 180.724 90.6336 180.86 91.6007L172.599 91.5674ZM192.146 87.8324V85.0979H187.964V101.071H192.146V93.4348C192.146 91.9008 192.655 90.8004 193.641 90.1334C194.661 89.4665 195.851 89.1997 197.075 89.3664V84.7644C196.021 84.7644 195.001 85.0312 194.083 85.5314C193.165 86.0317 192.485 86.8653 192.146 87.8324ZM206.627 84.631C204.655 84.6644 202.785 85.3313 201.256 86.5986C199.76 87.8324 198.74 89.5665 198.366 91.4673C197.992 93.3681 198.298 95.3357 199.25 97.0364C200.202 98.7371 201.698 100.071 203.499 100.805C205.301 101.538 207.341 101.605 209.21 101.038C211.08 100.471 212.712 99.2707 213.799 97.67C214.887 96.0693 215.363 94.1351 215.159 92.201C214.955 90.2668 214.105 88.466 212.712 87.0988C211.93 86.2984 210.978 85.6648 209.924 85.2646C208.87 84.7978 207.748 84.5977 206.627 84.631ZM209.754 96.2361C209.346 96.6362 208.87 96.9697 208.326 97.1698C207.782 97.3699 207.205 97.5033 206.627 97.4699C206.049 97.4699 205.471 97.3699 204.927 97.1698C204.383 96.9697 203.907 96.6362 203.499 96.2361C202.683 95.369 202.242 94.2352 202.242 93.068C202.242 91.9009 202.683 90.767 203.499 89.9C203.907 89.4998 204.383 89.1663 204.927 88.9662C205.471 88.7662 206.049 88.6328 206.627 88.6661C207.205 88.6661 207.782 88.7662 208.326 88.9662C208.87 89.1663 209.346 89.4998 209.754 89.9C210.57 90.767 211.012 91.9009 211.012 93.068C211.012 94.2352 210.57 95.369 209.754 96.2361ZM223.963 96.136H218.864V101.071H223.963V96.136Z" fill="#1D1D1B"/>
</g>
</mask>
<g mask="url(#mask0_1215_24241)">
<rect x="10.707" y="7.96454" width="236.991" height="164.071" fill="white"/>
</g>
<defs>
<clipPath id="clip0_1215_24241">
<rect width="206" height="54.6903" fill="white" transform="translate(18 62.6548)"/>
</clipPath>
</defs>
</svg>
