<svg width="242" height="180" viewBox="0 0 242 180" fill="none" xmlns="http://www.w3.org/2000/svg">
<mask id="mask0_1215_24247" style="mask-type:alpha" maskUnits="userSpaceOnUse" x="49" y="52" width="145" height="76">
<g clip-path="url(#clip0_1215_24247)">
<path d="M110.92 103.646C112.521 102.729 115.014 103.816 114.898 105.824C115.103 107.96 112.346 109.11 110.734 107.984C109.192 107.052 109.305 104.441 110.92 103.646Z" fill="black"/>
<path d="M171.94 103.572C173.62 102.708 176.03 104.008 175.772 106.03C175.772 108.122 173.072 109.066 171.537 107.919C170.004 106.933 170.232 104.25 171.94 103.572Z" fill="black"/>
<path d="M93.0195 104.654H97.356V127.246H93.0195V104.654Z" fill="black"/>
<path d="M133.59 104.654H137.923C137.923 107.196 137.95 109.733 137.9 112.278C140.398 109.386 145.502 109.27 148.01 112.207C149.084 113.578 149.637 115.289 149.572 117.035C149.554 120.444 149.593 123.855 149.554 127.264C148.141 127.228 146.727 127.264 145.313 127.246C145.313 124.044 145.313 120.835 145.313 117.632C145.28 116.288 144.72 114.824 143.46 114.199C141.934 113.458 139.817 113.67 138.735 115.096C138.03 116.013 137.879 117.22 137.929 118.343C137.929 121.313 137.929 124.289 137.929 127.258H133.59V104.654Z" fill="black"/>
<path d="M49 105.962H53.8967C56.1197 111.183 58.3408 116.409 60.5599 121.641C62.786 116.413 64.9883 111.167 67.2232 105.944C68.8386 105.944 70.4511 105.944 72.0665 105.944C72.0665 113.043 72.0665 120.142 72.0665 127.24H67.7182C67.7182 122.741 67.733 118.239 67.7182 113.736C65.8745 118.239 64.0546 122.75 62.1931 127.243H58.9326C57.0445 122.738 55.2246 118.212 53.3246 113.712C53.3542 118.221 53.3246 122.735 53.3246 127.246H49V105.962Z" fill="black"/>
<path d="M100.573 106.193H104.906C104.906 107.567 104.906 108.938 104.906 110.313C106.137 110.33 107.37 110.313 108.603 110.313V113.874H104.909C104.942 116.757 104.841 119.646 104.957 122.523C105.404 124.065 107.423 123.47 108.606 123.59V127.235C106.623 127.163 104.456 127.533 102.66 126.494C101.157 125.675 100.585 123.847 100.585 122.215C100.585 119.446 100.564 116.67 100.606 113.901C99.9268 113.874 99.251 113.871 98.5781 113.871C98.5781 112.676 98.5781 111.496 98.5781 110.31H100.573C100.573 108.935 100.573 107.558 100.573 106.181" fill="black"/>
<path d="M74.4648 110.321C75.9113 110.321 77.3588 110.321 78.8072 110.321C78.8072 113.608 78.8072 116.918 78.8072 120.219C78.8072 121.899 80.067 123.542 81.7713 123.709C83.7484 124.151 85.8884 122.714 86.0514 120.638C86.1789 117.202 86.0514 113.766 86.1048 110.315H90.4442V127.24H86.1137C86.1137 126.571 86.1137 125.902 86.1285 125.236C83.7572 128.152 78.905 128.176 76.3144 125.561C75.1188 124.194 74.4618 122.433 74.4678 120.611C74.4678 117.181 74.4678 113.739 74.4678 110.315" fill="black"/>
<path d="M110.133 110.32C111.559 110.32 112.984 110.299 114.407 110.344C114.371 115.976 114.407 121.608 114.407 127.245H110.133C110.133 121.601 110.133 115.959 110.133 110.32Z" fill="black"/>
<path d="M118.289 112.335C120.535 110.059 124.06 109.604 127.033 110.432C129.623 111.143 131.562 113.458 132.119 116.064C130.568 116.076 129.019 116.076 127.471 116.064C126.739 113.551 123.165 112.974 121.499 114.854C120.118 116.494 120.043 118.902 120.55 120.904C120.956 122.577 122.554 123.969 124.321 123.769C125.773 123.856 127.012 122.822 127.501 121.489C129.039 121.489 130.581 121.489 132.119 121.489C131.491 124.178 129.416 126.538 126.707 127.205C124.413 127.734 121.852 127.617 119.791 126.377C118.824 125.795 117.993 125.01 117.353 124.075C116.713 123.141 116.28 122.078 116.083 120.96C115.538 117.958 116.051 114.537 118.289 112.32" fill="black"/>
<path d="M154.342 111.355C157.306 109.263 161.861 109.673 164.123 112.627C164.123 111.857 164.123 111.089 164.123 110.321C165.578 110.342 167.037 110.273 168.495 110.375C168.415 115.998 168.495 121.623 168.459 127.246H164.117C164.117 126.465 164.117 125.687 164.117 124.91C161.544 128.331 155.939 128.349 153.183 125.155C149.851 121.31 150.127 114.453 154.339 111.355M158.506 114.044C155.512 114.88 154.534 118.848 155.984 121.39C156.962 123.398 159.615 124.297 161.589 123.249C164.23 121.973 164.781 118.208 163.302 115.851C162.802 115.069 162.066 114.471 161.202 114.146C160.337 113.82 159.392 113.784 158.506 114.044Z" fill="black"/>
<path d="M170.949 110.321H175.274C175.274 115.964 175.274 121.606 175.274 127.247C173.848 127.247 172.419 127.208 170.996 127.285C170.866 121.636 170.973 115.977 170.94 110.321" fill="black"/>
<path d="M177.851 110.321H182.114C182.114 110.981 182.114 111.641 182.114 112.298C184.743 109.221 190.227 109.311 192.574 112.669C194.856 115.913 193.297 120.198 194.015 123.825V127.174C192.518 127.281 191.015 127.225 189.515 127.237C189.483 123.813 189.574 120.386 189.474 116.965C189.352 114.575 186.637 113.129 184.506 113.977C182.979 114.455 182.135 116.069 182.152 117.613C182.078 120.813 182.152 124.022 182.123 127.225C180.703 127.225 179.283 127.225 177.866 127.225C177.866 121.584 177.866 115.943 177.866 110.303" fill="black"/>
<path d="M97.7182 55.6618C100.937 52.5098 106.038 51.6404 110.167 53.3374C113.597 54.7446 115.879 57.8458 118.467 60.3674C116.756 61.9897 115.147 63.7135 113.46 65.3597C111.916 63.8241 110.422 62.2406 108.848 60.7378C107.274 59.2351 104.616 59.0558 102.944 60.4929C100.739 62.6171 98.6519 64.8757 96.4229 66.988C95.1365 68.2548 92.8512 68.3773 91.5262 67.1135C90.0738 65.8288 89.9849 63.2893 91.4314 61.9688C93.524 59.8674 95.6117 57.7651 97.6945 55.6618" fill="#724CE3"/>
<path d="M129.031 55.8052C132.324 52.5188 137.627 51.5598 141.863 53.436C144.806 54.6311 146.759 57.2483 149 59.3725C149.981 60.4152 151.303 61.3862 151.472 62.9218C151.881 65.1416 149.744 67.3346 147.533 66.9312C146.001 66.7699 145.034 65.4374 144.009 64.4425C142.696 63.1548 141.465 61.7716 140.087 60.5586C138.383 59.0827 135.605 59.1753 134.058 60.8424C122.911 72.0461 111.773 83.2608 100.644 94.4864C98.9016 96.2252 96.7544 97.4961 94.399 98.1829C92.0436 98.8698 89.5549 98.9506 87.1605 98.4181C81.1197 97.1842 76.3119 91.6541 75.8555 85.4607V82.7718C76.1815 78.6399 78.3987 74.9113 81.4635 72.2373C80.429 71.1916 79.3887 70.146 78.369 69.0883C82.0148 69.0674 85.6577 69.0883 89.3035 69.0883V80.1427L86.4758 77.2805C85.7012 78.0121 84.9661 78.7851 84.2735 79.5959C83.3814 80.8095 82.8715 82.2651 82.8098 83.7742C82.748 85.2833 83.1373 86.7763 83.9271 88.0598C84.7169 89.3433 85.871 90.3581 87.2397 90.9729C88.6084 91.5876 90.1287 91.774 91.6036 91.5077C93.3287 91.2448 94.8641 90.2708 96.0735 89.0279C107.045 77.9497 118.03 66.8755 129.031 55.8052Z" fill="#724CE3"/>
<path d="M152.503 67.9708C156.149 67.9708 159.797 67.9708 163.446 67.9708C162.477 69.0344 161.389 69.9844 160.441 71.066C161.442 72.2282 162.619 73.2261 163.591 74.4211C165.05 76.1427 166.102 78.176 166.667 80.3675C167.232 82.5589 167.295 84.8511 166.852 87.0708C166.426 89.2375 165.515 91.2774 164.187 93.0348C162.86 94.7922 161.151 96.2206 159.193 97.211C153.976 99.9148 147.132 99.0454 142.846 94.9732C136.72 88.8166 130.602 82.6551 124.492 76.4886C126.185 74.8155 127.794 73.0677 129.546 71.4603C135.406 77.4357 141.331 83.3423 147.209 89.2996C149.414 91.6509 153.199 92.353 156.048 90.8144C159.205 89.2817 160.944 85.3111 159.845 81.9381C159.193 79.4613 157.041 77.8987 155.399 76.1211C154.438 77.0931 153.477 78.0631 152.515 79.0311C152.515 75.3473 152.515 71.6605 152.515 67.9767" fill="#724CE3"/>
</g>
</mask>
<g mask="url(#mask0_1215_24247)">
<rect x="-10.8242" y="-1.25879" width="263.636" height="182.517" fill="white"/>
</g>
<defs>
<clipPath id="clip0_1215_24247">
<rect width="145" height="75.035" fill="white" transform="translate(49 52.4825)"/>
</clipPath>
</defs>
</svg>
