<svg width="242" height="180" viewBox="0 0 242 180" fill="none" xmlns="http://www.w3.org/2000/svg">
<mask id="mask0_1215_24138" style="mask-type:alpha" maskUnits="userSpaceOnUse" x="54" y="55" width="135" height="70">
<g clip-path="url(#clip0_1215_24138)">
<path d="M118.675 55.0312H115.075V58.629H118.675V55.0312ZM129.475 58.0346H133.075V61.6323H129.475V58.0346ZM53.875 67.0446H61.075V99.4557H53.875V67.0446Z" fill="#ED6A54"/>
<path fill-rule="evenodd" clip-rule="evenodd" d="M74.2656 99.4557V67.0446H99.4656V99.4557H74.2656ZM92.2656 74.2401V92.2289H81.4656V74.2401H92.2656Z" fill="#ED6A54"/>
<path d="M134.876 67.0446H109.676V86.2535H127.676V92.2289H109.676V99.4244H134.876V79.0267H116.876V74.2402H134.876V67.0446ZM147.476 67.0446H172.676V74.2402H154.676V92.2289H165.476V86.2222H159.486V79.0267H172.676V99.4244H147.476V67.0446ZM181.086 77.2435H177.486V80.8412H181.086V77.2435ZM106.076 59.2547H109.676V62.8525H106.076V59.2547ZM67.6859 55.657H64.0859V59.2547H67.6859V55.657ZM185.276 88.0367H188.876V91.6345H185.276V88.0367ZM179.876 94.6378H176.276V98.2356H179.876V94.6378Z" fill="#ED6A54"/>
<path d="M53.8789 109.654H55.6789L59.5893 120.854L63.4996 109.654H65.2996L60.4893 123.451H58.6893L53.8789 109.654ZM71.2892 109.654H80.2892V111.469H73.0893V115.661H79.6996V117.475H73.0893V121.636H80.2892V123.451H71.2892V109.654ZM88.0789 109.654H86.2789V123.451H88.0789V115.067H89.8789V116.85H91.6789V118.664H93.4789V120.479H95.2789V123.482H97.0789V109.686H95.2789V118.696H93.4789V116.881H91.6789V115.067H89.8789V113.283H88.0789C88.0789 113.252 88.0789 109.654 88.0789 109.654ZM137.889 119.227H139.689V121.011H137.889V119.227ZM141.489 122.856H139.689V121.073H141.489V122.856ZM141.489 122.856H143.289V124.671H141.489V122.856Z" fill="black"/>
<path d="M137.889 117.444V119.259H136.089V117.444H134.289V123.451H132.489V109.654H140.278V111.469H134.289V115.661H140.278V117.475H137.889V117.444Z" fill="black"/>
<path d="M140.28 115.63V111.438H142.08V115.63H140.28ZM119.301 109.654H117.501V121.636H119.301V123.451H125.291V121.636H127.091V109.623H125.291V121.636H119.301V109.654ZM173.891 117.444H172.091V115.63H166.101V111.438H173.301V109.623H166.101V111.438H164.301V115.63H166.101V117.444H172.091V121.636H164.891V123.451H172.091V121.636H173.891V117.444ZM112.101 111.438H107.911V123.451H106.111V111.438H101.301V109.623H112.101V111.438ZM149.28 109.654V123.451H158.28V121.636H151.08V117.444H157.691V115.63H151.08V111.438H158.28V109.623H149.28V109.654Z" fill="black"/>
<path d="M61.0789 67.0447H57.4789V70.6424H61.0789V67.0447ZM57.4789 74.2402H61.0789V77.8379H57.4789V74.2402ZM57.4789 81.4357H53.8789V77.8379H57.4789V81.4357ZM57.4789 81.4357H61.0789V85.0334H57.4789V81.4357ZM74.2686 67.0447H77.8686V70.6424H74.2686V67.0447ZM77.8686 70.6424H81.4686V74.2402H77.8686V70.6424ZM88.6686 67.0447H92.2686V70.6424H88.6686V67.0447ZM99.4686 67.0447H95.8686V70.6424H99.4686V67.0447ZM109.679 67.0447H113.279V70.6424H109.679V67.0447ZM127.679 70.6424H131.279V74.2402H127.679V70.6424Z" fill="#253135"/>
<path d="M131.278 70.6424H134.878V67.0447H131.278V70.6424ZM169.078 70.6424H165.478V67.0447H161.878V70.6424H165.478V74.2402H169.078V70.6424ZM169.078 70.6424V67.0447H172.678V70.6424H169.078ZM165.478 82.6558H169.078V86.2535H165.478V82.6558ZM169.078 82.6558V79.058H172.678V82.6558H169.078ZM154.678 70.6424H151.078V74.2402H154.678V70.6424ZM154.678 70.6424H158.278V67.0447H154.678V70.6424ZM127.678 79.058H131.278V82.6558H127.678V79.058ZM124.078 82.6558H127.678V86.2535H124.078V82.6558ZM124.078 82.6558H120.478V79.058H124.078V82.6558ZM131.278 82.6558H134.878V86.2535H131.278V82.6558ZM124.078 70.6424H120.478V67.0447H116.878V70.6424H120.478V74.2402H124.078V70.6424ZM99.4672 81.4357H95.8672V85.0334H99.4672V81.4357ZM95.8672 88.6312H99.4672V92.2289H95.8672V88.6312Z" fill="#253135"/>
</g>
</mask>
<g mask="url(#mask0_1215_24138)">
<rect x="3.26172" y="7.88593" width="235.57" height="163.087" fill="white"/>
</g>
<defs>
<clipPath id="clip0_1215_24138">
<rect width="135" height="69.7651" fill="white" transform="translate(54 55)"/>
</clipPath>
</defs>
</svg>
