<?xml version="1.0" encoding="UTF-8"?>
<svg id="Layer_2" data-name="Layer 2" xmlns="http://www.w3.org/2000/svg" viewBox="0 0 165.49 23.21">
  <defs>
    <style>
      .cls-1 {
        fill: #fff;
      }
    </style>
  </defs>
  <g id="Layer_2-2" data-name="Layer 2">
    <g>
      <path class="cls-1" d="m.77,1.91L0,.45h43.49l.77,1.47h-19.8l.99,1.89s1.1,2.35,3.82,4.23,5.69,2.09,6.6,2.09h7.62l.77,1.47h-14.06s-12.3-.55-19.2,11.61H0s2.7-5.92,8.96-9.52c2.93-1.69,6.86-3.66,13.62-3.55,0,0-2.96.13-6.12-2-1.35-.91-2.24-1.88-2.88-2.78-.86-1.21-.98-2-2.04-2.76-.84-.61-1.72-.68-2.09-.68s-8.67,0-8.67,0Z"/>
      <g>
        <path class="cls-1" d="m54.55.45h13.71v2.49h-11.03v7.39h10.84v2.49h-10.84v9.95h-2.68V.45Z"/>
        <path class="cls-1" d="m83.29,17.21h-9.56l-1.63,5.55h-2.87L76,.45h5.03l6.76,22.31h-2.87l-1.63-5.55Zm-4.97-15.62l-3.86,13.13h8.1l-3.86-13.13h-.38Z"/>
        <path class="cls-1" d="m91.38,20.28h1.91V2.94h-1.91V.45h9.02c1.06,0,2,.14,2.82.44.82.29,1.51.7,2.07,1.21.56.51.99,1.12,1.28,1.83.28.71.43,1.48.43,2.31v.38c0,.62-.1,1.18-.28,1.69-.19.51-.46.97-.8,1.37-.34.4-.74.75-1.2,1.03-.46.29-.96.5-1.48.65v.38c1.06.29,1.96.86,2.68,1.71s1.08,1.86,1.08,3.08v.38c0,.83-.14,1.6-.43,2.31-.29.71-.71,1.33-1.28,1.85-.56.52-1.25.93-2.07,1.23-.82.29-1.75.44-2.82.44h-9.02v-2.49Zm4.59-9.95h4.34c1.27,0,2.28-.33,3.03-.99.74-.65,1.12-1.56,1.12-2.71v-.19c0-1.08-.4-1.93-1.18-2.56-.79-.62-1.8-.94-3.06-.94h-4.24v7.39Zm0,9.95h4.24c1.26,0,2.27-.31,3.06-.94.79-.62,1.18-1.49,1.18-2.59v-.19c0-1.15-.37-2.05-1.12-2.73-.74-.67-1.75-1-3.03-1h-4.34v7.46Z"/>
        <path class="cls-1" d="m125.75,22.76h-2.68v-7.46c0-.55-.13-.98-.38-1.27-.25-.3-.7-.45-1.34-.45h-6.95v9.18h-2.68V.45h7.97c1.15,0,2.14.16,3,.49.85.33,1.56.77,2.12,1.32s.99,1.2,1.27,1.93c.29.73.43,1.51.43,2.31v.96c0,.83-.23,1.66-.68,2.49s-1.17,1.47-2.12,1.92v.38c.64.11,1.14.37,1.5.77s.55.98.55,1.72v8.04Zm-11.35-11.67h4.97c1.51,0,2.63-.32,3.36-.97.73-.64,1.1-1.6,1.1-2.85v-.57c0-1.13-.37-2.04-1.1-2.73s-1.86-1.03-3.36-1.03h-4.97v8.16Z"/>
        <path class="cls-1" d="m130.85.45h14.15v2.49h-5.74v17.34h5.74v2.49h-14.15v-2.49h5.74V2.94h-5.74V.45Z"/>
        <path class="cls-1" d="m157.65,20.72c.91,0,1.7-.15,2.35-.46.64-.31,1.18-.72,1.59-1.24.41-.52.72-1.11.93-1.78.2-.67.3-1.38.3-2.12v-.38h2.68v.38c0,1.13-.17,2.19-.51,3.17-.34.99-.84,1.85-1.5,2.58-.66.73-1.48,1.31-2.46,1.72-.98.41-2.1.62-3.38.62-2.46,0-4.38-.77-5.77-2.32s-2.07-3.81-2.07-6.79v-4.97c0-2.89.69-5.13,2.07-6.73,1.38-1.59,3.3-2.39,5.77-2.39,1.28,0,2.4.21,3.38.62s1.8.99,2.46,1.72c.65.73,1.16,1.6,1.5,2.58.34.99.51,2.05.51,3.17v.38h-2.68v-.38c-.02-.72-.13-1.42-.33-2.1-.2-.68-.51-1.28-.93-1.8-.41-.52-.94-.93-1.58-1.24-.64-.31-1.42-.46-2.33-.46-1.72,0-3.01.63-3.87,1.88-.86,1.26-1.29,2.9-1.29,4.94v4.59c0,2.19.43,3.87,1.29,5.06.86,1.18,2.15,1.77,3.87,1.77Z"/>
      </g>
    </g>
  </g>
</svg>