<?xml version="1.0" encoding="UTF-8"?>
<svg width="1024px" height="1024px" viewBox="0 0 1024 1024" version="1.1" xmlns="http://www.w3.org/2000/svg" xmlns:xlink="http://www.w3.org/1999/xlink">
    <title>freeton</title>
    <g id="Page-1" stroke="none" stroke-width="1" fill="none" fill-rule="evenodd">
        <g id="freeton" fill-rule="nonzero">
            <g id="layer101" fill="#32A9FA">
                <polygon id="Path" points="0 512 0 0 512 0 1024 0 1024 512 1024 1024 512 1024 0 1024"></polygon>
            </g>
            <g id="layer102" fill="#FEFFFF">
                <path d="M0,512 L0,0 L512,0 L1024,0 L1024,512 L1024,1024 L512,1024 L0,1024 L0,512 Z M740.266667,655.288889 C941.511111,454.4 945.777778,449.422222 945.777778,435.911111 C945.777778,423.466667 938.666667,413.511111 856.533333,310.755556 C807.466667,249.244444 763.377778,195.911111 758.4,192 C749.511111,184.888889 743.466667,184.888889 523.022222,184.888889 C321.066667,184.888889 295.822222,185.6 288.711111,190.577778 C281.6,195.555556 123.022222,391.111111 105.6,416 C102.4,420.622222 99.5555556,430.222222 99.5555556,437.333333 C99.5555556,449.066667 111.288889,461.511111 305.066667,654.933333 C497.422222,847.644444 510.933333,860.444444 522.666667,860.444444 C534.044444,860.444444 547.911111,847.644444 740.266667,655.288889 Z" id="Shape"></path>
                <path d="M476.8,601.6 C452.622222,533.688889 432,476.088889 431.288889,473.955556 C429.866667,470.4 449.422222,469.333333 522.666667,469.333333 C595.911111,469.333333 615.466667,470.4 614.044444,473.955556 C613.333333,476.088889 592.711111,533.688889 568.533333,601.6 C544.355556,669.866667 523.733333,725.333333 522.666667,725.333333 C521.6,725.333333 500.977778,669.866667 476.8,601.6 Z" id="Path"></path>
                <path d="M325.333333,583.111111 L211.555556,469.333333 L285.866667,470.044444 L360.177778,471.111111 L379.377778,524.444444 C405.333333,595.2 440.888889,696.888889 439.822222,696.888889 C439.466667,696.888889 387.911111,645.688889 325.333333,583.111111 Z" id="Path"></path>
                <path d="M625.422222,637.511111 C636.8,604.444444 654.577778,555.377778 664.533333,528 C674.488889,500.977778 682.666667,476.444444 682.666667,473.955556 C682.666667,470.4 699.022222,469.333333 758.044444,469.333333 L833.777778,469.333333 L720,583.111111 C657.422222,645.688889 605.866667,696.888889 605.511111,696.888889 C605.155556,696.888889 614.044444,670.222222 625.422222,637.511111 Z" id="Path"></path>
                <path d="M246.044444,343.111111 C288.711111,289.777778 293.333333,284.8 296.177778,292.266667 C310.4,329.955556 334.222222,396.8 334.222222,398.933333 C334.222222,400.355556 303.644444,401.777778 266.666667,401.777778 L199.111111,401.777778 L246.044444,343.111111 Z" id="Path"></path>
                <path d="M448.711111,393.955556 C488.177778,331.022222 521.244444,281.244444 523.377778,281.955556 C525.511111,282.666667 568.533333,348.444444 593.422222,388.622222 L601.6,401.777778 L522.666667,401.777778 L443.733333,401.777778 L448.711111,393.955556 Z" id="Path"></path>
                <path d="M711.111111,399.644444 C711.111111,398.577778 720,372.266667 731.377778,340.977778 C747.022222,296.177778 752.355556,285.155556 755.555556,288.711111 C758.044444,291.2 779.377778,317.866667 803.2,347.733333 L846.577778,401.777778 L778.666667,401.777778 C741.688889,401.777778 711.111111,400.711111 711.111111,399.644444 Z" id="Path"></path>
                <path d="M390.044444,356.622222 C387.911111,353.066667 352,252.444444 352,249.955556 C352,249.6 376.888889,248.888889 407.111111,248.888889 C437.333333,248.888889 462.222222,249.6 462.222222,250.666667 C462.222222,256 391.822222,359.466667 390.044444,356.622222 Z" id="Path"></path>
                <path d="M634.666667,331.377778 C625.066667,316.444444 609.422222,292.266667 600.177778,278.044444 C590.933333,263.466667 583.111111,251.377778 583.111111,250.311111 C583.111111,249.6 608,248.888889 638.577778,248.888889 C681.6,248.888889 693.688889,249.955556 692.622222,253.511111 C691.555556,255.644444 683.022222,280.533333 673.422222,308.266667 C663.822222,336.355556 655.288889,359.111111 654.222222,359.111111 C653.155556,359.111111 644.622222,346.666667 634.666667,331.377778 Z" id="Path"></path>
            </g>
        </g>
    </g>
</svg>
