<!DOCTYPE svg PUBLIC "-//W3C//DTD SVG 20010904//EN" "http://www.w3.org/TR/2001/REC-SVG-20010904/DTD/svg10.dtd">
<svg version="1.0" xmlns="http://www.w3.org/2000/svg" width="320px" height="320px" viewBox="0 0 3200 3200" preserveAspectRatio="xMidYMid meet">
<g id="layer101" fill="#137cb1" stroke="none">
 <path d="M0 1600 l0 -1600 1600 0 1600 0 0 1600 0 1600 -1600 0 -1600 0 0 -1600z"/>
 </g>
<g id="layer102" fill="#0088cc" stroke="none">
 <path d="M0 1600 l0 -1600 1600 0 1600 0 0 1600 0 1600 -1600 0 -1600 0 0 -1600z m1602 760 c-19 -4 -48 -21 -66 -36 -18 -17 -16 -13 6 9 26 26 45 37 65 36 27 -1 26 -1 -5 -9z m198 -143 c41 -38 79 -77 84 -86 8 -14 -118 103 -214 198 -32 32 -31 32 10 -4 25 -21 79 -70 120 -108z m-334 36 c-14 -14 -29 -24 -32 -21 -5 5 43 48 54 48 2 0 -7 -12 -22 -27z m-121 -113 c-38 -38 -73 -70 -78 -70 -8 0 134 139 143 140 2 0 -27 -31 -65 -70z m576 -37 c13 -16 12 -17 -3 -4 -10 7 -18 15 -18 17 0 8 8 3 21 -13z m-296 -72 c-3 -3 -9 5 -12 18 -6 23 -6 23 -20 -5 -7 -16 -11 -21 -8 -11 3 11 8 30 11 44 l7 25 14 -32 c7 -18 11 -36 8 -39z m340 29 l20 -25 -22 19 c-13 11 -23 24 -23 29 0 6 1 8 3 6 1 -2 11 -15 22 -29z m-715 -3 c0 -1 -30 -32 -67 -67 l-68 -65 65 68 c60 62 70 72 70 64z m183 -30 c-4 -8 -26 -29 -48 -47 l-40 -34 45 47 c45 48 57 57 43 34z m367 -12 c7 -9 8 -15 2 -15 -5 0 -12 7 -16 15 -3 8 -4 15 -2 15 2 0 9 -7 16 -15z m255 -42 c3 -8 -11 0 -30 18 -19 19 -35 35 -35 36 0 9 60 -42 65 -54z m-478 20 c-4 -3 -7 0 -7 7 0 7 3 10 7 7 3 -4 3 -10 0 -14z m268 -22 c-6 -5 -25 10 -25 20 0 5 6 4 14 -3 8 -7 12 -15 11 -17z m-198 2 c-4 -3 -7 0 -7 7 0 7 3 10 7 7 3 -4 3 -10 0 -14z m-248 -32 c-6 -18 -13 -30 -15 -28 -2 2 1 18 7 36 6 18 13 30 15 28 2 -2 -1 -18 -7 -36z m440 -45 c-1 -15 -28 46 -28 64 0 8 6 0 14 -19 8 -18 15 -38 14 -45z m-282 47 c-4 -3 -7 0 -7 7 0 7 3 10 7 7 3 -4 3 -10 0 -14z m353 -30 c25 -26 34 -39 21 -28 -38 32 -80 75 -72 75 4 0 27 -21 51 -47z m306 -88 c28 -23 181 -175 175 -175 -3 0 -76 69 -162 153 -85 84 -126 125 -90 92 35 -33 70 -64 77 -70z m-891 97 c-11 -10 -51 -47 -90 -82 l-70 -64 80 82 c44 45 84 82 89 82 6 0 2 -8 -9 -18z m359 -32 c5 -17 4 -20 -2 -10 -5 8 -13 26 -16 40 -5 17 -4 20 2 10 5 -8 13 -26 16 -40z m-143 13 c-12 -20 -14 -14 -5 12 4 9 9 14 11 11 3 -2 0 -13 -6 -23z m-449 -5 c-7 -7 -12 -8 -12 -2 0 14 12 26 19 19 2 -3 -1 -11 -7 -17z m272 -47 c-9 -23 -18 -40 -20 -38 -2 2 4 22 13 45 9 23 18 40 20 38 2 -2 -4 -22 -13 -45z m-364 -36 c-41 -42 -84 -80 -95 -86 -11 -6 21 28 70 75 50 47 92 85 95 85 3 1 -29 -33 -70 -74z m527 48 c-4 -3 -7 0 -7 7 0 7 3 10 7 7 3 -4 3 -10 0 -14z m337 -33 c5 -17 4 -20 -2 -10 -5 8 -13 26 -16 40 -5 17 -4 20 2 10 5 -8 13 -26 16 -40z m-347 3 c-4 -3 -7 0 -7 7 0 7 3 10 7 7 3 -4 3 -10 0 -14z m202 -38 c0 -5 -4 -3 -9 5 -5 8 -9 22 -9 30 0 16 17 -16 18 -35z m278 28 c-4 -3 -7 0 -7 7 0 7 3 10 7 7 3 -4 3 -10 0 -14z m133 -115 c57 -54 99 -98 94 -98 -13 0 -35 16 -37 25 -1 5 -26 31 -56 59 -81 76 -121 118 -112 114 4 -2 55 -47 111 -100z m-793 75 c-4 -3 -7 0 -7 7 0 7 3 10 7 7 3 -4 3 -10 0 -14z m154 -10 c-12 -20 -14 -14 -5 12 4 9 9 14 11 11 3 -2 0 -13 -6 -23z m236 -10 c-4 -3 -7 0 -7 7 0 7 3 10 7 7 3 -4 3 -10 0 -14z m-588 -15 c-59 -52 -71 -60 -34 -20 21 23 43 42 49 42 5 0 -1 -10 -15 -22z m191 12 c0 -5 -5 -10 -11 -10 -5 0 -7 5 -4 10 3 6 8 10 11 10 2 0 4 -4 4 -10z m571 -16 c5 -15 8 -29 5 -31 -2 -2 -8 10 -14 26 -13 38 -5 41 9 5z m-424 -11 c-4 -3 -7 0 -7 7 0 7 3 10 7 7 3 -4 3 -10 0 -14z m-166 -20 c-12 -20 -14 -14 -5 12 4 9 9 14 11 11 3 -2 0 -13 -6 -23z m449 -17 c0 -12 -5 -7 -19 24 -11 24 -11 24 3 6 9 -11 16 -24 16 -30z m-293 7 c-4 -3 -7 0 -7 7 0 7 3 10 7 7 3 -4 3 -10 0 -14z m-649 -60 c-45 -46 -68 -78 -71 -98 l-4 -30 -2 32 c-1 28 9 42 67 98 88 85 95 83 10 -2z m479 30 c-4 -3 -7 0 -7 7 0 7 3 10 7 7 3 -4 3 -10 0 -14z m152 -22 c-6 -18 -13 -30 -15 -28 -2 2 1 18 7 36 6 18 13 30 15 28 2 -2 -1 -18 -7 -36z m-406 4 l-28 -24 24 -1 c34 0 19 -11 -18 -14 l-31 -2 32 33 c17 18 36 33 41 33 4 0 -5 -11 -20 -25z m724 8 c-4 -3 -7 0 -7 7 0 7 3 10 7 7 3 -4 3 -10 0 -14z m160 -10 c-4 -3 -7 0 -7 7 0 7 3 10 7 7 3 -4 3 -10 0 -14z m-640 -10 c-4 -3 -7 0 -7 7 0 7 3 10 7 7 3 -4 3 -10 0 -14z m497 -8 c4 -11 -2 -15 -22 -14 -17 1 -20 3 -9 6 9 2 17 9 17 14 0 14 7 11 14 -6z m164 -20 c-3 -3 -9 2 -12 12 -6 14 -5 15 5 6 7 -7 10 -15 7 -18z m-831 8 c-4 -3 -10 -3 -14 0 -3 4 0 7 7 7 7 0 10 -3 7 -7z m400 -10 c-4 -3 -7 0 -7 7 0 7 3 10 7 7 3 -4 3 -10 0 -14z m80 0 c-4 -3 -7 0 -7 7 0 7 3 10 7 7 3 -4 3 -10 0 -14z m80 10 c-4 -3 -10 -3 -14 0 -3 4 0 7 7 7 7 0 10 -3 7 -7z m460 0 c-4 -3 -10 -3 -14 0 -3 4 0 7 7 7 7 0 10 -3 7 -7z m308 -13 c10 -11 16 -20 13 -20 -3 0 -13 9 -23 20 -10 11 -16 20 -13 20 3 0 13 -9 23 -20z m32 -72 c-3 -8 -6 -5 -6 6 -1 11 2 17 5 13 3 -3 4 -12 1 -19z m-1702 -48 c10 -11 14 -20 9 -20 -5 0 -15 9 -22 20 -7 11 -11 20 -9 20 2 0 12 -9 22 -20z m1679 5 c-4 -8 -11 -15 -16 -15 -6 0 -5 6 2 15 7 8 14 15 16 15 2 0 1 -7 -2 -15z m-1460 -26 c-3 -6 9 -26 27 -45 18 -19 30 -34 25 -34 -7 0 -54 52 -69 76 -5 10 -3 14 8 14 9 0 13 -5 9 -11z m154 4 c-21 -2 -57 -2 -80 0 -24 2 -7 4 37 4 44 0 63 -2 43 -4z m66 -15 c-10 -34 -27 -59 -18 -28 4 14 7 31 7 38 0 6 4 12 9 12 5 0 6 -10 2 -22z m260 6 c3 -8 2 -12 -4 -9 -6 3 -10 10 -10 16 0 14 7 11 14 -7z m184 9 c-27 -2 -69 -2 -95 0 -27 2 -5 3 47 3 52 0 74 -1 48 -3z m61 -53 c-23 -33 -44 -60 -46 -60 -6 0 13 31 41 69 20 26 23 37 13 43 -8 5 -4 8 11 8 22 0 21 -3 -19 -60z m288 53 c-4 -3 -10 -3 -14 0 -3 4 0 7 7 7 7 0 10 -3 7 -7z m46 0 c-7 -2 -19 -2 -25 0 -7 3 -2 5 12 5 14 0 19 -2 13 -5z m90 0 c-13 -2 -33 -2 -45 0 -13 2 -3 4 22 4 25 0 35 -2 23 -4z m107 4 c0 -2 -11 -14 -25 -27 -21 -20 -25 -21 -25 -6 0 9 5 14 10 11 6 -3 10 -2 10 4 0 5 -8 12 -17 14 -10 3 -3 5 15 6 17 0 32 0 32 -2z m141 -56 c-22 -26 -48 -54 -58 -62 -10 -8 6 14 36 49 29 34 55 62 58 62 3 0 -13 -22 -36 -49z m-1561 4 c13 -14 21 -25 18 -25 -2 0 -15 11 -28 25 -13 14 -21 25 -18 25 2 0 15 -11 28 -25z m671 -2 c13 -16 12 -17 -3 -4 -17 13 -22 21 -14 21 2 0 10 -8 17 -17z m528 -28 c0 -5 -4 -3 -9 5 -5 8 -9 22 -9 30 0 16 17 -16 18 -35z m121 -35 c-29 -33 -55 -60 -58 -60 -3 0 4 10 16 23 12 13 22 26 22 30 0 7 61 66 68 67 2 0 -19 -27 -48 -60z m-963 23 c-4 -3 -7 0 -7 7 0 7 3 10 7 7 3 -4 3 -10 0 -14z m167 1 c3 -8 2 -12 -4 -9 -6 3 -10 1 -10 -6 0 -7 -2 -10 -5 -7 -5 5 4 38 10 38 2 0 6 -7 9 -16z m186 -15 c15 -28 5 -23 -15 7 -9 15 -12 23 -6 20 6 -4 16 -16 21 -27z m-665 1 c10 -11 16 -20 13 -20 -3 0 -13 9 -23 20 -10 11 -16 20 -13 20 3 0 13 -9 23 -20z m1005 10 c0 -5 -4 -10 -9 -10 -8 0 -111 -143 -111 -154 0 -3 28 -7 63 -9 l62 -3 -74 -2 -73 -2 17 28 c87 134 125 181 125 152z m-805 -20 c10 -11 16 -20 13 -20 -3 0 -13 9 -23 20 -10 11 -16 20 -13 20 3 0 13 -9 23 -20z m975 -15 c0 -5 -5 -3 -10 5 -5 8 -10 20 -10 25 0 6 5 3 10 -5 5 -8 10 -19 10 -25z m-660 -15 c12 -16 18 -30 13 -30 -5 0 -17 14 -26 30 -10 17 -16 30 -13 30 2 0 14 -13 26 -30z m497 13 c-4 -3 -7 0 -7 7 0 7 3 10 7 7 3 -4 3 -10 0 -14z m-560 -10 c-4 -3 -7 0 -7 7 0 7 3 10 7 7 3 -4 3 -10 0 -14z m313 -28 c-17 -25 -32 -45 -34 -45 -2 0 -15 19 -30 43 l-27 42 30 -34 c17 -19 32 -33 34 -30 2 2 14 19 26 37 12 17 25 32 27 32 3 0 -9 -20 -26 -45z m-491 2 c12 20 13 8 3 -20 -7 -16 -11 -14 -37 15 -26 28 -26 30 -3 10 25 -23 27 -23 37 -5z m779 -67 c0 -17 -22 32 -32 70 -3 14 3 7 13 -15 11 -22 19 -47 19 -55z m141 58 c6 -18 7 -28 2 -23 -10 12 -25 55 -18 55 3 0 10 -15 16 -32z m223 9 c-12 -13 -22 -27 -22 -32 0 -5 -15 -23 -32 -40 -18 -17 -51 -53 -73 -80 -22 -27 -51 -60 -64 -72 l-24 -23 -471 2 -471 3 472 2 473 3 111 130 c62 72 114 130 117 130 3 0 -4 -10 -16 -23z m-1320 -49 c31 -45 14 -32 -28 20 -21 26 -28 38 -15 27 13 -11 32 -32 43 -47z m342 35 c-4 -16 -14 -37 -22 -48 l-14 -20 7 20 c4 11 12 32 17 48 5 15 12 27 14 27 2 0 1 -12 -2 -27z m140 -55 l27 -38 -105 0 c-59 0 -106 3 -106 8 0 4 43 6 96 4 l96 -3 -19 28 c-47 68 -39 68 11 1z m-439 -28 c3 -5 1 -10 -4 -10 -6 0 -11 5 -11 10 0 6 2 10 4 10 3 0 8 -4 11 -10z m930 0 c4 -6 -6 -10 -22 -9 -25 0 -26 1 -8 9 11 5 21 9 22 9 1 1 5 -3 8 -9z m-870 -78 c-3 -3 -6 -3 -7 -1 -2 2 -14 18 -28 34 l-25 30 32 -29 c18 -16 31 -32 28 -34z m35 -37 c13 -14 21 -25 18 -25 -2 0 -15 11 -28 25 -13 14 -21 25 -18 25 2 0 15 -11 28 -25z"/>
 </g>
<g id="layer103" fill="#f8fdfc" stroke="none">
 <path d="M1553 2328 c-34 -28 -651 -607 -765 -720 -44 -42 -47 -64 -16 -104 63 -81 342 -406 361 -419 18 -13 86 -15 478 -15 421 0 458 1 477 18 11 9 100 111 196 226 134 158 176 215 176 235 0 30 8 21 -295 306 -88 83 -239 225 -335 316 -163 155 -205 189 -228 189 -5 0 -27 -15 -49 -32z m151 -473 c47 -126 86 -233 86 -237 0 -5 -83 -8 -185 -8 -102 0 -185 2 -185 3 0 2 41 111 90 241 50 131 90 241 90 244 0 24 29 -44 104 -243z m-293 108 c-73 -197 -130 -345 -134 -349 -2 -3 -70 -3 -151 -2 l-147 3 226 213 c124 116 228 212 230 212 3 0 -8 -35 -24 -77z m724 -256 l100 -96 -150 -1 -150 0 -78 208 c-42 114 -77 211 -77 216 0 8 118 -101 355 -327z m-912 -224 c6 -11 -68 -206 -79 -210 -9 -3 -184 199 -184 211 0 9 258 7 263 -1z m533 -9 c-3 -8 -38 -62 -77 -120 l-71 -104 -17 22 c-28 37 -141 207 -141 213 0 3 70 5 156 5 138 0 155 -2 150 -16z m494 7 c0 -11 -170 -211 -179 -211 -7 0 -81 189 -81 208 0 9 34 12 130 12 72 0 130 -4 130 -9z m-838 -176 c30 -44 58 -86 62 -92 6 -10 -18 -13 -102 -13 l-110 0 35 92 c19 51 37 96 40 101 7 11 8 9 75 -88z m495 13 c17 -46 34 -91 38 -100 7 -17 -2 -18 -104 -18 l-112 0 68 100 c37 54 70 99 73 100 3 0 20 -37 37 -82z"/>
 </g>

</svg>