<?xml version="1.0" encoding="utf-8"?>
<!-- Generator: Adobe Illustrator 19.2.1, SVG Export Plug-In . SVG Version: 6.00 Build 0)  -->
<svg version="1.1" id="layer" xmlns="http://www.w3.org/2000/svg" xmlns:xlink="http://www.w3.org/1999/xlink" x="0px" y="0px"
	 viewBox="0 0 652 652" style="enable-background:new 0 0 652 652;" xml:space="preserve">
<path d="M49.8,295.2c3,0,6.1,0,9.1,0c0,1.8,0,3,0,4.3c-11,0-21.9,0-32.9,0c0-1.2,0-3,0-4.3c3,0,6.1,0,9.1,0c0-1.2,0-1.8,0-2.4
	c0-18.3,0-35.9,0-54.2c0-1.8-0.6-2.4-2.4-2.4c-2.4,0-4.3,0-6.7,0c0-1.8,0-3,0-4.9c0.6,0,1.2,0,1.8,0c11,0,21.9,0,33.5,0
	c4.3,0,8.5,0.6,12.2,1.8c7.9,3,12.8,10.3,12.2,18.9c-0.6,8.5-6.1,14.6-14.6,16.4c-6.1,1.2-12.2,1.2-17.6,1.2c-3,0-4.3,0.6-4.3,3
	c0,6.7,0,12.8,0,19.5C49.8,292.8,49.8,294,49.8,295.2z M49.2,235.6c0,10.3,0,20.1,0,29.2c4.3,0,8.5,0.6,12.8,0
	c5.5-0.6,7.3-3,7.9-8.5c0-4.3,0-7.9,0-12.2c-0.6-4.3-3-6.7-7.3-7.3C58.3,236.2,54.1,236.2,49.2,235.6z M160,354.8
	c1.2-1.2,3-3,5.5-4.9c0.6-0.6,1.8-1.2,2.4-0.6c0.6,0,1.2,1.8,1.2,2.4c0,7.3,0,14.6,0,21.9c0,1.2,0,2.4-2.4,2.4c-1.8,0-3,0-3.7-2.4
	c-0.6-3-1.2-6.7-3-9.7c-3-6.7-7.9-11-15.8-10.3c-7.9,0-14.6,3-18.9,11c-1.2,1.8-1.8,4.3-2.4,6.7c-1.2,9.7-1.8,19.5,0.6,29.2
	c2.4,10.3,11.6,16.4,22.5,15.2c9.1-1.2,16.4-8.5,17-18.9c0-1.8,1.2-2.4,3-2.4c1.8,0,1.8,1.2,1.8,3c-0.6,10.3-8.5,19.5-18.9,22.5
	c-11,2.4-28-0.6-36.5-14.6c-5.5-9.1-6.7-18.9-4.3-29.2c4.3-21.9,26.2-29.2,40.2-25.6C152.7,351.1,156.3,353,160,354.8z M397.9,233.1
	c0,1.2,0,2.4,0,4.3c-2.4,0-4.3,0-6.7,0c-1.8,0-2.4,0.6-2.4,2.4c0,6.7,0,14,0,20.7c0,1.2,0,2.4,1.8,2.4c7.3,0,14.6,0,21.9,0
	c0-8.5,0-16.4,0-25.6c-3,0-6.1,0-9.1,0c0-1.8,0-3,0-4.3c10.3,0,21.3,0,31.6,0c0,1.2,0,2.4,0,4.3c-2.4,0-4.3,0-6.7,0
	c-1.8,0-2.4,0.6-2.4,2.4c0,17.6,0,35.9,0,53.6c0,1.8,0.6,2.4,2.4,1.8c1.8,0,3.7,0,4.9,0c1.8,0,1.8,1.2,1.8,2.4
	c0,1.8-0.6,1.8-1.8,1.8c-9.7,0-19.5,0-29.2,0h-0.6c-1.2-4.3-0.6-4.3,3-4.3c1.2,0,3,0,4.3,0h0.6c0-0.6,0-1.2,0-1.8
	c0-7.9,0-15.2,0-23.1c0-1.8-0.6-3-3-2.4c-6.1,0-12.2,0-18.9,0c-1.8,0-2.4,0.6-2.4,2.4c0,7.9,0,15.2,0,23.1c0,1.8,0.6,2.4,2.4,2.4
	c1.2,0,2.4,0,3,0c3.7,0,3.7,0,3.7,4.3c-10.3,0-21.3,0-31.6,0c0-1.2,0-2.4,0-4.3c1.8,0,4.3,0,6.7,0c1.8,0,2.4-0.6,2.4-2.4
	c0-17.6,0-35.3,0-53.6c0-1.8-0.6-2.4-2.4-2.4c-1.8,0-4.3,0-6.7,0c0-1.2,0-2.4,0-4.3C376.6,233.1,386.9,233.1,397.9,233.1z M97.9,266
	c0.6-11,3-20.1,11.6-28c12.8-11.6,42-10.3,49.3,14.6c3,10.3,3,20.7-1.8,30.4c-5.5,12.2-18.3,18.9-32.3,17
	c-13.4-1.8-23.1-11-25.6-24.3C98.5,272.7,97.9,269.6,97.9,266z M113.1,265.4c0,3.7,0,7.3,0.6,11c0.6,6.7,2.4,12.2,7.3,17
	c4.9,4.9,12.8,4.9,17,0c2.4-3,4.9-6.7,6.1-10.3c2.4-8.5,2.4-17,1.2-25.6c-0.6-4.3-1.2-8.5-3-12.2c-2.4-5.5-6.7-9.1-13.4-9.1
	c-6.1,0-10.3,3.7-12.8,9.1C112.5,250.8,113.1,258.1,113.1,265.4z M556.1,237.4c0-1.8,0-2.4,0-4.3c1.2,0,2.4,0,4.3,0
	c4.9,0,10.3,0,15.2,0c2.4,0,4.3,0.6,5.5,3c9.7,13.4,19.5,26.8,29.2,40.2c0-0.6,0,0,1.2,0.6c0-1.2,0.6-1.8,0.6-2.4
	c0-11,0-22.5,0-33.5c0-2.4-0.6-3.7-3-3.7c-1.8,0-3.6,0-6.1-0.6c0-1.2,0-2.4,0-4.3c7.9,0,15.2,0,23.1,0c0,1.2,0,2.4,0,4.3
	c-2.4,0-3.6,0.6-5.5,0.6c-2.4,0-3.7,1.2-3.7,4.3c0,18.3,0,36.5,0,54.8c0,1.2-0.6,3-1.8,3c-1.2,0-2.4-0.6-3.7-1.2
	c-0.6,0-0.6-0.6-0.6-1.2c-11-15.2-21.9-30.4-33.5-45.6c-1.8-3-4.3-5.5-6.7-9.1c0,1.2,0,2.4,0,3c0,15.2,0,30.4,0,45.6
	c0,3,0.6,4.3,3.6,4.3c0.6,0,1.2,0,1.8,0c3.6,0,3.6,0,3.6,4.3c-7.9,0-15.2,0-23.1,0c-1.2-3.7-1.2-4.3,3-4.3c5.5-0.6,5.5-0.6,5.5-6.1
	c0-16.4,0-32.9,0-48.7c0-2.4-0.6-3.7-3-3C559.8,237.4,557.9,237.4,556.1,237.4z M277.4,414.4c3,0,4.9,0,7.3,0c1.8,0,1.8,1.2,1.8,2.4
	c0,1.2,0,2.4-1.8,2.4c-9.7,0-18.9,0-28.6,0c-1.8,0-1.8-0.6-1.8-2.4c0-1.2,0-2.4,1.8-2.4c2.4,0,4.3,0,7.3,0c0-1.2,0-2.4,0-3
	c0-17,0-34.1,0-51.1c0-2.4-0.6-3.7-3-3.7c-1.2,0-2.4,0-3.7,0c-1.8,0-2.4-0.6-2.4-2.4c0-1.8,0.6-2.4,2.4-2.4c11.6,0,23.1,0,34.7,0
	c7.3,0,14.6,2.4,18.3,9.1c6.7,11,0.6,24.3-12.2,26.8c-5.5,1.2-11.6,1.2-17,1.2c-2.4,0-3,0.6-3,3
	C277.4,399.8,277.4,406.5,277.4,414.4z M276.8,370.6c0,4.3,0,7.9,0,12.2c0,1.2,0,2.4,1.8,2.4c3.7,0,7.3,0,11-0.6
	c4.9-0.6,7.3-3,7.3-7.9c0-4.3,0-8.5,0-12.8c-0.6-4.9-2.4-7.3-7.3-7.9c-3.7-0.6-6.7,0-10.3-0.6c-1.8,0-2.4,0.6-2.4,2.4
	C276.8,362.7,276.8,367,276.8,370.6z M383.9,357.2c-3.7,0.6-7.9,0.6-11,1.8c-3,0.6-4.9,3-5.5,6.1c-0.6,2.4-1.2,5.5-1.2,7.9
	c-0.6,3.7-0.6,3.7-4.9,3c0-1.8,0-3,0-4.9c0.6-5.5,1.2-11,1.2-16.4c0-1.2,0-2.4,1.8-2.4c18.3,0,35.9,0,54.2,0c0,0,0.6,0,1.2,0.6
	c0.6,7.3,1.2,15.2,1.8,22.5c-4.3,1.2-4.3,1.2-4.9-3c-0.6-1.8-1.2-3.7-1.2-6.1c-1.2-5.5-4.9-8.5-10.3-8.5c-2.4,0-4.3,0-6.7,0
	c0,18.9,0,37.7,0,56.6c4.3,0,8.5,0,12.8,0c0,1.8,0,3,0,4.3c-13.4,0-26.2,0-39.6,0c0-1.2,0-2.4,0-4.3c4.3,0,8.5,0,12.8,0
	C383.9,395.6,383.9,376.7,383.9,357.2z M509.3,299.5c-10.3,0-20.1,0-29.8,0c-1.2-4.3-0.6-4.3,3-4.3c1.2,0,2.4,0,4.3,0
	c-1.8-4.3-3-8.5-4.3-12.2c0-0.6-1.2-0.6-1.8-0.6c-6.1,0-12.2,0-18.3,0c-0.6,0-1.8,0.6-1.8,1.2c-1.2,3.7-2.4,7.3-3.7,11
	c1.8,0,3,0.6,4.3,0.6c3.7,0,3.7,1.2,3,4.3c-7.3,0-14,0-21.3,0c-0.6-4.3-0.6-4.3,3-4.3c3.7,0,5.5-1.2,6.7-4.9
	c6.1-18.3,12.8-36.5,19.5-55.4c0.6-1.8,1.2-3.7,3.7-3.7c2.4,0,3.7,1.2,4.3,3.7c4.9,14.6,10.3,29.2,15.2,43.8
	c1.8,4.9,3.7,9.7,4.9,14.6c0.6,1.8,1.8,2.4,3.7,2.4c0.6,0,1.2,0,1.8,0C509.9,295.2,509.9,295.2,509.3,299.5z M481.3,276.9
	c-3-8.5-6.1-16.4-8.5-25h-0.6c-3,7.9-5.5,16.4-8.5,24.3C469.1,276.9,474.6,276.9,481.3,276.9z M216.6,414.4c3,0,5.5,0,7.9,0
	c-1.8-4.3-3-8.5-4.3-12.2c0-0.6-1.2-1.2-1.8-1.2c-6.1,0-12.2,0-18.3,0c-0.6,0-1.8,0.6-2.4,1.2c-1.2,3.7-2.4,6.7-3.7,11
	c2.4,0.6,4.9,0.6,7.3,1.2c0,1.2,0,2.4,0,4.3c-7.3,0-14,0-21.3,0c-1.2-4.3-1.2-4.3,3-4.3c4.9,0,4.9,0,6.7-4.9
	c6.7-18.3,12.8-36.5,19.5-55.4c0.6-1.8,1.2-3.7,4.3-3.7c3,0,3.7,1.8,4.3,3.7c6.7,18.9,13.4,38.3,20.1,57.2c0.6,2.4,1.8,3,4.3,3
	c1.2,0,1.8,0,3,0c1.8,0,1.8,1.2,1.8,2.4c0,1.2-0.6,2.4-1.8,2.4c-8.5,0-17.6,0-26.2,0C215.3,418.7,217.2,416.3,216.6,414.4z
	 M200.1,396.2c6.1,0,12.2,0,18.3,0c-3-8.5-6.1-16.4-8.5-25h-0.6C206.2,379.8,203.2,387.7,200.1,396.2z M456.9,418.7
	c0-1.2,0-2.4,0-4.3c2.4,0,4.9,0,7.9,0c-1.8-4.3-3-7.9-4.3-12.2c0-0.6-1.2-1.2-2.4-1.2c-6.1,0-11.6,0-17.6,0c-0.6,0-1.8,0.6-2.4,1.8
	c-1.2,3-2.4,6.7-3.7,11c2.4,0.6,4.9,0.6,7.3,1.2c0,1.2,0,2.4,0,4.3c-7.3,0-14.6,0-21.3,0c-1.2-3.7-1.2-4.3,3-4.3
	c4.9,0,4.9,0,6.7-4.9c6.7-18.3,12.8-36.5,19.5-54.8c0.6-1.8,1.2-3.7,4.3-3.7c3,0,3.7,1.8,4.3,3.7c6.7,18.9,13.4,38.3,20.1,57.2
	c0.6,1.8,1.8,3,3.7,2.4c0.6,0,1.8,0,2.4,0c1.8,0,3,0,3,2.4s-1.2,2.4-3,2.4c-8.5,0-17,0-25,0C458.8,418.7,458.2,418.7,456.9,418.7z
	 M450.3,371.8h-0.6c-3,7.9-5.5,16.4-8.5,24.3c6.1,0,12.2,0,18.3,0C455.7,387.7,452.7,379.8,450.3,371.8z M259.1,266
	c5.5-9.7,10.3-18.3,15.8-28c-2.4-0.6-4.3-0.6-6.7-1.2c0-1.2,0-2.4,0-4.3c7.3,0,14,0,21.3,0c0,1.2,0,2.4,0,3.7l-0.6,0.6
	c-6.1-0.6-9.1,2.4-11.6,7.3c-4.3,9.1-9.7,17.6-14.6,26.2c-0.6,1.2-1.2,2.4-1.2,3.7c0,6.1,0,12.2,0,18.3c0,1.8,0.6,2.4,2.4,2.4
	c1.2,0,2.4,0,3,0c3.7,0,3.7,0,3,4.3c-10.3,0-20.7,0-31,0c0-1.2,0-2.4,0-4.3c2.4,0,4.9,0,6.7,0c1.2,0,2.4-0.6,2.4-1.8
	c0-6.1,0-12.8,0-18.9c0-1.2-0.6-1.8-1.2-3c-6.1-11-12.2-21.3-18.3-31.6c-1.2-1.2-3-1.8-4.3-1.8c-1.8-0.6-3.7,0-5.5,0
	c0-1.2,0-2.4,0-4.3c10.3,0,20.1,0,30.4,0c0,1.2,0,2.4,0,4.3c-2.4,0-4.3,0-7.3,0.6C248.2,247.1,253.1,256.3,259.1,266z M356.5,244.7
	c0,3.7,0,7.3,0,10.3c0,1.8,0,3-2.4,3c-1.8,0-3-0.6-3-2.4c-0.6-6.1-3-12.2-8.5-15.8c-9.1-7.3-24.3-2.4-28.6,9.1
	c-1.2,4.9-1.8,10.3-1.8,15.2c0,6.1,0.6,12.8,2.4,18.9c2.4,9.1,11.6,14,21.3,13.4c9.1-1.2,15.8-8.5,16.4-17.6c0-1.8,0.6-3,3-3
	s1.8,1.8,1.8,3c-0.6,9.7-7.9,18.3-18.3,21.3c-14,3.7-30.4-3-37.7-15.8c-7.3-13.4-7.3-38.3,12.8-48.7c10.3-5.5,21.9-6.7,32.3,0.6
	c0.6,0.6,1.8,0,2.4,0c1.2-1.2,2.4-2.4,4.3-3.7c0.6,0,1.8-1.2,2.4-0.6c0.6,0,1.2,1.8,1.2,2.4C356.5,238,356.5,241,356.5,244.7z
	 M545.8,392.5c-1.2,8.5-1.8,16.4-3,25c0,0.6-1.8,1.2-3,1.2c-12.2,0-24.3,0-36.5,0c-1.8,0-3.7,0-5.5,0c-3.7,0-3.7,0-3-4.3
	c3,0,5.5,0,8.5,0c0-1.2,0-2.4,0-3c0-17,0-34.7,0-51.7c0-2.4-0.6-3.7-3-3c-0.6,0-1.8,0-2.4,0c-4.3,0-4.3,0-3-4.3c11,0,22.5,0,33.5,0
	c1.2,4.3,0.6,4.3-3,4.3c-2.4,0-4.9,0-7.9,0c0,19.5,0,38.3,0,57.2c11,2.4,19.5-2.4,21.9-12.8c0.6-1.8,0.6-3.7,1.2-5.5
	C541.5,391.9,541.5,391.3,545.8,392.5z M220.8,273.3c-1.2,8.5-1.8,17.6-3,26.2c-16.4,0-32.3,0-48.1,0c0-1.2,0-2.4,0-4.3
	c2.4,0,4.3,0,6.7,0c1.8,0,2.4-0.6,2.4-2.4c0-18.3,0-36.5,0-54.2c0-0.6,0-0.6,0-1.2c-3,0-5.5,0-8.5,0c0-1.8,0-3,0-4.3
	c11.6,0,23.1,0,34.7,0c0,1.2,0,2.4,0,4.3c-3.7,0-7.3,0-11.6,0c0,1.2,0,2.4,0,3c0,17,0,34.7,0,51.7c0,2.4,0.6,3,3,3
	c12.2,0,17.6-4.9,20.1-17c0-0.6,0.6-1.2,0.6-1.8C215.9,272.7,217.8,272.7,220.8,273.3z M320.6,356.6c0-1.8,0-3,0-4.3
	c11,0,21.9,0,32.9,0c0,1.2,0,2.4,0,4.3c-2.4,0-4.9,0-7.3,0c-1.2,0-2.4,0.6-2.4,1.8c0,18.3,0,36.5,0,54.8c0,0.6,0,0.6,0.6,1.2
	c3,0,6.1,0,9.1,0c0,1.8,0,3,0,4.3c-11,0-21.9,0-32.9,0c0-1.2,0-2.4,0-4.3c2.4,0,4.9,0,7.3,0c1.8,0,1.8-0.6,1.8-1.8
	c0-17.6,0-35.9,0-53.6c0-1.8-0.6-2.4-2.4-2.4C325.5,356.6,323.1,356.6,320.6,356.6z M516.6,237.4c0-1.8,0-3,0-4.3c1.2,0,2.4,0,3,0
	c8.5,0,17.6,0,26.2,0c3.6-0.6,3.6-0.6,3.6,4.3c-1.2,0-3,0-4.9,0c-1.2,0-3,0-4.9,0c0,1.2,0,2.4,0,3c0,17,0,34.1,0,51.7
	c0,3,0.6,3.7,3.7,3c0.6,0,1.8,0,2.4,0c3.6,0,3.6,0,3.6,4.3c-11,0-21.9,0-32.9,0c-0.6-4.3-0.6-4.3,3.7-4.3c6.1,0,6.1,0,6.1-6.1
	c0-16.4,0-32.9,0-48.7c0-2.4-0.6-3.7-3-3C520.8,237.4,518.4,237.4,516.6,237.4z"/>
</svg>
