<?xml version="1.0" encoding="UTF-8" standalone="no"?>
<!DOCTYPE svg PUBLIC "-//W3C//DTD SVG 1.1//EN" "http://www.w3.org/Graphics/SVG/1.1/DTD/svg11.dtd">
<svg version="1.1" xmlns:dc="http://purl.org/dc/elements/1.1/" xmlns:xl="http://www.w3.org/1999/xlink" xmlns="http://www.w3.org/2000/svg" viewBox="0 0 150 150" width="150" height="150">
  <defs/>
  <metadata> Produced by OmniGraffle 7.9.4 
    <dc:date>2021-04-28 22:22:13 +0000</dc:date>
  </metadata>
  <g id="Canvas_1" stroke-dasharray="none" stroke-opacity="1" stroke="none" fill-opacity="1" fill="none">
    <title>Canvas 1</title>
    <rect fill="white" x="0" y="0" width="150" height="150"/>
    <g id="Canvas_1: Layer 1">
      <title>Layer 1</title>
      <g id="Group_2">
        <title>Community</title>
        <g id="Group_3">
          <title>footer</title>
          <g id="Group_4">
            <g id="Group_5">
              <title>Group-14</title>
              <g id="Group_6">
                <title>chia-logo-(1)</title>
                <g id="Graphic_11">
                  <title>Rectangle-path</title>
                  <rect x="89.87556" y="61.114594" width="13" height="38" fill="#3aac59"/>
                </g>
                <g id="Group_7">
                  <title>Group</title>
                  <g id="Graphic_10">
                    <title>Shape</title>
                    <path d="M 72.026816 58.255406 C 67.02863 58.255406 61.91774 59.45197 60.64525 61.67909 C 60.62807 61.70725 60.61131 61.733304 60.59497 61.762304 L 60.59497 45.81903 L 47.247067 45.81903 L 47.247067 71.11207 L 47.247067 71.15536 C 48.57486 71.76352 49.93659 72.45826 51.314246 73.24378 C 51.78017 73.51109 52.17444 73.74435 52.465223 73.91919 C 52.647905 74.02888 52.83017 74.139 53.01243 74.25248 C 53.031285 74.26425 45.38296 86.174 34.96718 88.67472 C 28.813408 90.1533 21.543855 88.36329 20.07109 82.19007 C 20.009497 81.93412 19.975559 81.67732 19.935754 81.42094 C 20.91704 80.83674 21.92053 80.30045 22.92947 79.80325 C 25.47863 78.69242 27.424022 77.85983 28.160196 77.57739 C 28.22472 77.553435 28.290084 77.52864 28.35419 77.5051 C 28.355447 77.5051 28.357123 77.50468 28.35796 77.50468 C 28.3588 77.50468 28.3588 77.50384 28.360056 77.503 C 34.43757 75.299 39.538827 74.538275 39.538827 74.538275 C 34.906006 74.13774 30.928073 74.46052 27.599162 75.11996 C 27.597905 75.118275 27.594553 75.117435 27.594553 75.117435 C 27.594553 75.117435 27.569413 75.12332 27.52458 75.13509 C 24.510335 75.73862 22.030726 76.61661 20.105447 77.49249 C 21.178073 73.0433 25.04958 69.1779 29.631285 68.07674 C 30.03394 67.98007 30.44204 67.90526 30.851397 67.84138 C 30.969134 67.823304 31.086453 67.80733 31.20461 67.79178 C 31.522626 67.74849 31.84232 67.71487 32.164106 67.68881 C 32.26676 67.68083 32.37025 67.6699 32.473324 67.664435 C 32.884777 67.63838 33.297486 67.62535 33.71187 67.62703 C 33.793156 67.62745 33.87444 67.63207 33.955726 67.63249 C 34.2993 67.63754 34.642877 67.650986 34.98687 67.67284 C 35.10838 67.680406 35.22947 67.68839 35.35014 67.69806 C 35.47081 67.707725 35.59148 67.71907 35.71173 67.73042 C 37.684358 67.93426 40.10782 68.46383 42.794413 69.376696 L 42.794413 60.632986 C 41.498045 60.23203 40.122486 59.84368 38.694553 59.49232 C 34.930307 58.48951 28.46648 57.42197 21.397207 59.1439 C 10.026955 61.91487 6.802374 70.32697 6.802374 80.60642 C 6.802374 81.91604 6.906285 83.14161 7.096089 84.29446 C 4.6277933 85.92939 2.2034916 87.80683 -21316282e-21 89.94946 C -21316282e-21 89.94946 3.2794693 88.48686 7.6110335 86.56235 C 10.502514 96.43496 20.588547 99.75609 28.18366 99.75609 C 36.10433 99.75609 41.189246 97.49493 47.247067 93.71526 L 47.247067 98.50278 L 60.59497 98.50278 L 60.59497 74.7543 C 60.61131 74.7232 60.62807 74.69252 60.64525 74.66058 L 60.64525 74.2571 C 61.91522 70.86284 64.07514 69.98696 66.47556 69.98696 C 69.648184 69.98696 71.63045 72.24013 71.63045 75.82058 L 71.63045 98.50278 L 84.97835 98.50278 L 84.97835 71.97619 C 84.97835 63.62461 79.75768 58.255406 72.026816 58.255406" fill="#3aac59"/>
                  </g>
                  <g id="Graphic_9">
                    <title>Shape</title>
                    <path d="M 96.16341 42.5 C 92.1331 42.5 89.29106 45.349986 89.29106 49.393174 C 89.29106 53.43636 92.1331 56.28593 96.16341 56.28593 C 100.19371 56.28593 103.03617 53.43636 103.03617 49.393174 C 103.03617 45.349986 100.19371 42.5 96.16341 42.5" fill="#3aac59"/>
                  </g>
                  <g id="Graphic_8">
                    <title>Shape</title>
                    <path d="M 147.26564 76.98184 L 147.28198 76.98184 L 147.26774 60.05467 L 133.90391 60.05467 L 133.831 62.460826 C 120.94064 54.1559 112.71159 62.69661 112.71159 62.69661 C 108.77598 66.301015 106.49204 71.99174 106.49204 79.13709 C 106.49204 91.80504 114.0838 99.34084 123.9528 99.34084 C 127.65168 99.34084 131.05936 98.50278 134.00196 94.42303 C 134.34302 95.37414 135.10223 97.70297 135.64609 98.50278 L 149.55251 98.50278 C 147.16885 94.5777 147.18813 80.96745 147.26564 76.98184 M 127.06885 88.36623 C 122.74064 88.36623 119.68869 84.59875 119.68869 79.25351 C 119.68869 73.90826 122.74064 70.13994 127.06885 70.13994 C 130.10405 70.13994 132.50992 71.99468 133.67723 74.94554 L 133.67723 83.56064 C 132.51034 86.51149 130.10405 88.36623 127.06885 88.36623" fill="#3aac59"/>
                  </g>
                </g>
              </g>
            </g>
          </g>
        </g>
      </g>
    </g>
  </g>
</svg>
