<?xml version="1.0" encoding="UTF-8" standalone="no"?>
<!DOCTYPE svg PUBLIC "-//W3C//DTD SVG 1.1//EN" "http://www.w3.org/Graphics/SVG/1.1/DTD/svg11.dtd">
<svg version="1.1" xmlns:dc="http://purl.org/dc/elements/1.1/" xmlns:xl="http://www.w3.org/1999/xlink" xmlns="http://www.w3.org/2000/svg" viewBox="0 0 1224 792" width="1224" height="792">
  <defs/>
  <metadata> Produced by OmniGraffle 7.9.4 
    <dc:date>2021-10-03 22:30:41 +0000</dc:date>
  </metadata>
  <g id="Canvas_1" stroke-opacity="1" stroke="none" stroke-dasharray="none" fill="none" fill-opacity="1">
    <title>Canvas 1</title>
    <rect fill="white" x="0" y="0" width="1224" height="792"/>
    <g id="Canvas_1: Layer 1">
      <title>Layer 1</title>
      <g id="Graphic_2">
        <rect x="11368684e-20" y="5684342e-20" width="1224" height="792" fill="#222"/>
      </g>
      <g id="Graphic_3">
        <path d="M 331 473 L 355 473 L 355 377 L 355 352 C 355 348.897 354.166 344.139 356.028 341.434 C 358.84 337.348 367.72 339 372 339 C 372.059 360.529 377.255 382.647 379.845 404 C 381.29 415.919 381.167 430.331 387.174 441 C 391.208 448.162 397.016 449.792 402.686 454.85 C 409.816 461.209 403.734 473.893 417 475.681 C 418.666 475.905 420.368 475.859 421.999 475.427 C 427.583 473.951 430.499 469.399 431.532 464 C 432.07 461.193 431.636 457.875 433.603 455.557 C 435.484 453.342 438.618 452.419 440.999 450.87 C 444.833 448.377 447.885 444.997 450.095 441 C 455.795 430.693 455.792 417.432 457.282 406 C 460.191 383.667 463.174 361.342 466 339 C 471.772 339 477.279 339.277 483 340 L 483 473 L 506 473 L 506 391 C 506 379.038 508.687 363.265 504.239 352 C 501.041 343.899 494.481 341.816 489.6 335.61 C 484.852 329.575 489.722 321.875 480.995 317.318 C 474.279 313.81 465.549 317.07 462.815 324.015 C 461.426 327.544 461.79 332.374 458.683 334.954 C 453.512 339.248 448.081 340.911 444.272 347 C 437.657 357.574 437.533 370.038 435.87 382 C 433.881 396.302 432.495 410.683 430.714 425 C 429.671 433.379 428.006 441.521 428 450 C 423.168 450.611 415.686 452.69 411.514 449.142 C 408.729 446.773 409.04 442.295 408.576 439 C 407.355 430.344 406.411 421.668 405.282 413 C 403.589 400.006 402.212 386.983 400.424 374 C 399.174 364.93 398.281 356.084 393.535 348.004 C 391.34 344.266 388.626 341.247 384.985 338.877 C 382.477 337.243 378.746 336.157 377.024 333.585 C 373.614 328.493 375.716 322.258 369.815 318.148 C 363.056 313.44 353.151 316.428 350.148 324.004 C 348.669 327.734 349.89 332.456 347.397 335.74 C 343.185 341.286 337.109 343.04 334.043 350 C 328.623 362.304 331 377.842 331 391 Z M 606 473 L 630 473 L 630 378 L 630 353 C 630 349.729 629.241 345.151 631.028 342.228 C 634.045 337.293 643.12 339 648 339 C 648.34 346.43 650.976 353.756 652.576 361 C 656.117 377.033 660.035 392.969 663.576 409 C 666.26 421.154 667.814 435.818 675.606 445.96 C 680.454 452.27 686.858 452.64 692.721 456.934 C 696.154 459.449 696.154 464.401 697.803 467.999 C 700.935 474.833 709.261 478.273 715.985 474.142 C 723.941 469.254 719.096 462.576 723.028 456.39 C 724.641 453.852 728.109 452.697 730.421 450.895 C 734.086 448.038 737.057 444.34 738.787 440 C 743.489 428.204 741 412.452 741 400 L 741 318 L 717 318 L 717 414 L 717 439 C 717 442.156 717.821 446.912 715.972 449.682 C 713.192 453.848 703.348 452 699 452 C 697.509 433.752 690.892 414.753 686.475 397 C 683.054 383.247 681.576 368.165 676.243 355 C 671.94 344.377 663.798 336.037 652 335 C 651.147 324.278 642.925 309.273 630.185 318.148 C 623.544 322.775 627.245 329.071 623.972 334.871 C 622.277 337.875 618.593 339.329 616.04 341.478 C 612.433 344.515 609.657 348.54 608.107 353 C 603.773 365.475 606 381.014 606 394 Z M 812 336 C 795.467 339.544 789.774 355.507 785.849 370 C 776.598 404.155 765.169 438.358 758 473 L 775 473 C 777.235 472.995 780.377 473.446 782.272 471.972 C 785.162 469.724 785.544 463.333 786.373 460 C 789.036 449.3 793.103 437.986 794 427 L 858 427 C 859.25 442.308 865.571 458.007 869 473 L 894 473 C 892.411 461.208 887.919 449.501 884.884 438 C 878.626 414.279 872.002 390.634 865.424 367 C 861.617 353.32 855.334 339.287 840 336 C 839.572 330.618 838.71 324.52 835.2 320.189 C 829.882 313.629 819.688 315.084 815.533 322.04 C 813.072 326.16 812.374 331.298 812 336 Z M 545 318 L 545 473 L 568 473 L 568 318 Z" fill="white"/>
      </g>
      <g id="Graphic_4">
        <path d="M 355 335 C 360.569 333.435 365.302 332.644 371 334 C 370.36 330.704 370.086 326.478 367.772 323.854 C 364.516 320.164 358.57 320.863 356.179 325.109 C 354.55 328.001 355.002 331.807 355 335 Z M 466 334 C 472.05 332.56 477.039 333.77 483 335 C 482.738 328.926 478.115 314.804 469.854 323.514 C 467.295 326.212 466.896 330.548 466 334 Z M 630 335 C 635.442 333.877 640.42 333.004 646 333 C 645.185 326.983 638.427 315.245 631.938 324.279 C 629.804 327.25 630.029 331.529 630 335 Z M 818 334 C 823.575 333.56 828.426 333.56 834 334 C 833.488 328.133 827.675 315.06 820.854 324.228 C 818.852 326.92 818.434 330.779 818 334 Z M 550 324 L 550 468 L 562 468 L 562 372 C 562 356.744 559.461 338.864 563 324 Z M 722 324 L 722 449 C 736.539 443.367 735 428.918 735 416 L 735 324 Z M 800 407 L 853 407 C 848.401 390.792 844.46 374.348 840.373 358 C 839.196 353.292 838.793 343.261 834.49 340.318 C 830.847 337.827 819.099 337.689 816.303 341.514 C 812.824 346.273 812.297 355.334 810.873 361 C 807.136 375.878 801.25 391.7 800 407 Z M 377 341 C 382.616 364.524 383.593 390.009 386.718 414 C 388.629 428.668 389.71 441.353 404 449 C 401.944 422.943 397.48 396.938 394.285 371 C 392.752 358.561 390.034 346.02 377 341 Z M 459 341 C 445.06 350.527 444.027 363.475 441.87 379 C 438.641 402.237 437.284 425.935 433 449 C 448.796 440.547 449.441 425.102 451.166 409 C 452.559 395.993 454.424 382.954 456.271 370 C 457.125 364.01 457.692 357.992 458.579 352 C 459.113 348.391 460.24 344.457 459 341 Z M 654 341 C 657.679 369.488 666.89 398.015 673.349 426 C 675.788 436.568 680.744 448.669 693 450 C 689.251 422.16 679.967 394.374 673.651 367 C 671.057 355.756 666.79 343.467 654 341 Z M 348 342 C 334.854 352.939 336 367.333 336 383 L 336 468 L 349 468 L 349 380 L 349 355 C 349 350.74 349.661 345.959 348 342 Z M 488 342 L 488 468 L 501 468 L 501 379 C 501 364.697 502.057 350.131 488 342 Z M 624 342 C 621.033 344.418 617.934 346.755 615.818 350.004 C 609.638 359.492 612 373.233 612 384 L 612 468 L 625 468 L 625 380 L 625 355 C 625 350.74 625.661 345.959 624 342 Z M 809 342 C 805.199 345.042 801.393 347.958 798.598 352.015 C 792.09 361.458 790.665 374.173 787.579 385 C 779.724 412.556 772.192 440.272 765 468 L 779 468 C 779.928 457.353 784.031 446.38 786.627 436 C 787.539 432.349 787.927 426.354 790.728 423.603 C 794.037 420.354 802.73 422 807 422 L 847 422 C 850.961 422 858.171 420.629 861.297 423.603 C 863.647 425.84 864.121 430.006 864.873 433 C 866.799 440.664 868.662 448.346 870.63 456 C 871.41 459.035 871.943 464.96 874.589 466.972 C 877.459 469.155 883.582 468 887 468 C 883.51 451.137 877.987 434.599 873.425 418 C 869.675 404.355 866.471 390.545 862.344 377 C 858.092 363.044 855.971 349.599 842 342 C 847.425 365.724 853.4 389.569 860 413 L 793 413 C 794.359 396.358 800.826 379.191 804.873 363 C 806.394 356.918 810.403 348.142 809 342 Z M 411 456 C 411.074 459.574 410.973 464.531 413.164 467.566 C 415.563 470.889 421.579 470.536 424.106 467.566 C 426.606 464.628 426.141 459.607 427 456 Z M 701 458 C 701.775 463.725 707.971 476.433 714.911 467.566 C 717.171 464.678 716.971 460.455 717 457 C 711.612 457.681 706.437 458 701 458 Z" fill="#222"/>
      </g>
    </g>
  </g>
</svg>
