<svg width="18" height="18" viewBox="0 0 18 18" fill="none" xmlns="http://www.w3.org/2000/svg">
<path d="M15.7556 17L10.1556 11.4C9.71111 11.7556 9.2 12.037 8.62222 12.2444C8.04444 12.4519 7.42963 12.5556 6.77778 12.5556C5.16296 12.5556 3.79644 11.9961 2.67822 10.8773C1.56 9.75852 1.00059 8.392 1 6.77778C1 5.16296 1.55941 3.79644 2.67822 2.67822C3.79704 1.56 5.16356 1.00059 6.77778 1C8.39259 1 9.75911 1.55941 10.8773 2.67822C11.9956 3.79704 12.555 5.16356 12.5556 6.77778C12.5556 7.42963 12.4519 8.04444 12.2444 8.62222C12.037 9.2 11.7556 9.71111 11.4 10.1556L17 15.7556L15.7556 17ZM6.77778 10.7778C7.88889 10.7778 8.83348 10.3887 9.61156 9.61067C10.3896 8.83259 10.7784 7.8883 10.7778 6.77778C10.7778 5.66667 10.3887 4.72207 9.61067 3.944C8.83259 3.16593 7.8883 2.77719 6.77778 2.77778C5.66667 2.77778 4.72207 3.16682 3.944 3.94489C3.16593 4.72296 2.77719 5.66726 2.77778 6.77778C2.77778 7.88889 3.16682 8.83348 3.94489 9.61156C4.72296 10.3896 5.66726 10.7784 6.77778 10.7778Z" fill="#212121"/>
</svg>
